<svg width="883" height="734" viewBox="0 0 883 734" fill="none" xmlns="http://www.w3.org/2000/svg">
<path d="M102.532 225.395C100.011 218.152 95.9397 211.547 90.603 206.038C85.2663 200.53 78.7923 196.253 71.6326 193.504C64.4728 190.755 56.7996 189.601 49.148 190.122C41.4964 190.643 34.0505 192.827 27.3297 196.522C20.6088 200.216 14.7748 205.332 10.2343 211.513C5.69382 217.694 2.55624 224.791 1.04034 232.309C-0.475571 239.827 -0.333306 247.585 1.4572 255.043C3.24771 262.5 6.64337 269.477 11.4074 275.487C11.8804 276.084 12.3727 276.68 12.8748 277.26C12.9124 277.298 12.9408 277.336 12.9791 277.374C14.213 278.796 15.5245 280.148 16.9075 281.425C17.2678 281.756 17.6458 282.097 18.0245 282.418C18.7437 283.062 19.482 283.677 20.2494 284.262C20.5523 284.499 20.8459 284.735 21.1579 284.963C22.3693 285.881 23.6282 286.736 24.9254 287.546L24.9821 287.575C25.3509 287.802 25.7297 288.029 26.1084 288.247C26.79 288.654 27.4907 289.042 28.1907 289.412L28.6361 289.639C29.6581 290.168 30.7 290.671 31.7695 291.134C31.9873 291.229 32.2241 291.324 32.4419 291.418C32.461 291.427 32.4703 291.427 32.4887 291.437C32.9908 291.646 33.4923 291.844 34.0029 292.034C35.6819 292.675 37.3944 293.225 39.1328 293.681C43.57 294.863 48.1425 295.461 52.7345 295.46C54.4097 295.46 56.0679 295.384 57.7041 295.223C61.4458 294.878 65.1395 294.132 68.7221 292.999C68.7313 292.999 68.7412 292.99 68.7505 292.99C71.0136 292.268 73.2243 291.391 75.3669 290.366C75.3762 290.356 75.3953 290.356 75.4045 290.346C75.8868 290.12 76.3514 289.873 76.823 289.637L77.0499 289.524C77.4287 289.325 77.8074 289.126 78.1847 288.918C79.1315 288.397 80.0585 287.849 80.977 287.261C81.2323 287.11 81.4791 286.949 81.7344 286.778C82.094 286.541 82.4536 286.295 82.804 286.04C83.2678 285.718 83.7317 285.387 84.1863 285.047C84.3281 284.943 84.4799 284.839 84.6217 284.725C93.4899 277.994 99.9993 268.628 103.217 257.97C106.434 247.312 106.195 235.909 102.532 225.395Z" fill="white"/>
<path d="M34.1547 255.067L37.2172 265.673L76.3556 264.982L76.0124 245.543C75.7407 230.157 64.8667 216.886 49.4806 217.158C34.0944 217.429 24.3112 230.437 24.5821 245.824L26.8177 265.857L33.2008 265.744L34.1547 255.067Z" fill="#D6D6E3"/>
<path d="M51.2302 262.485C60.9287 262.485 68.7909 254.623 68.7909 244.924C68.7909 235.226 60.9287 227.364 51.2302 227.364C41.5317 227.364 33.6696 235.226 33.6696 244.924C33.6696 254.623 41.5317 262.485 51.2302 262.485Z" fill="white"/>
<path d="M86.1834 272.309L85.7856 279.695C77.3573 288.461 65.861 293.62 53.7099 294.091C41.5587 294.562 29.6978 290.307 20.6168 282.219C20.2111 281.865 19.8132 281.489 19.4238 281.107C21.8586 278.689 28.5801 272.715 36.0391 272.162L69.6746 270.044C69.6746 270.044 82.4146 268.551 86.1834 272.309Z" fill="#D6D6E3"/>
<path d="M70.4533 232.593C70.4304 231.249 70.0096 229.941 69.2441 228.834C69.1633 228.721 69.0817 228.615 69.0008 228.51C68.3504 227.679 67.5167 227.01 66.5648 226.554C65.6129 226.099 64.5685 225.87 63.5135 225.885L50.8891 226.112L38.2796 226.334C36.4726 226.371 34.7534 227.121 33.4984 228.422C32.2434 229.722 31.5547 231.467 31.583 233.274L34.5866 239.321L36.3157 242.796L36.5994 242.634C47.516 236.498 51.9806 236.417 66.4284 242.123L66.7206 242.236L67.8654 239.306L70.4626 232.659L70.4533 232.593Z" fill="#D6D6E3"/>
<path d="M102.532 225.395C100.011 218.152 95.9397 211.547 90.603 206.038C85.2663 200.53 78.7923 196.253 71.6326 193.504C64.4728 190.755 56.7996 189.601 49.148 190.122C41.4964 190.643 34.0505 192.827 27.3297 196.522C20.6088 200.216 14.7748 205.332 10.2343 211.513C5.69382 217.694 2.55624 224.791 1.04034 232.309C-0.475571 239.827 -0.333306 247.585 1.4572 255.043C3.24771 262.5 6.64337 269.477 11.4074 275.487C11.8804 276.084 12.3727 276.68 12.8748 277.26C12.9124 277.298 12.9408 277.336 12.9791 277.374C14.213 278.796 15.5245 280.148 16.9075 281.425C17.2678 281.756 17.6458 282.097 18.0245 282.418C18.7437 283.062 19.482 283.677 20.2494 284.262C20.5523 284.499 20.8459 284.735 21.1579 284.963C22.3693 285.881 23.6282 286.736 24.9254 287.546L24.9821 287.575C25.3509 287.802 25.7297 288.029 26.1084 288.247C26.79 288.654 27.4907 289.042 28.1907 289.412L28.6361 289.639C29.6581 290.168 30.7 290.671 31.7695 291.134C31.9873 291.229 32.2241 291.324 32.4419 291.418C32.461 291.427 32.4703 291.427 32.4887 291.437C32.9908 291.646 33.4923 291.844 34.0029 292.034C35.6819 292.675 37.3944 293.225 39.1328 293.681C43.57 294.863 48.1425 295.461 52.7345 295.46C54.4097 295.46 56.0679 295.384 57.7041 295.223C61.4458 294.878 65.1395 294.132 68.7221 292.999C68.7313 292.999 68.7412 292.99 68.7505 292.99C71.0136 292.268 73.2243 291.391 75.3669 290.366C75.3762 290.356 75.3953 290.356 75.4045 290.346C75.8868 290.12 76.3514 289.873 76.823 289.637L77.0499 289.524C77.4287 289.325 77.8074 289.126 78.1847 288.918C79.1315 288.397 80.0585 287.849 80.977 287.261C81.2323 287.11 81.4791 286.949 81.7344 286.778C82.094 286.541 82.4536 286.295 82.804 286.04C83.2678 285.718 83.7317 285.387 84.1863 285.047C84.3281 284.943 84.4799 284.839 84.6217 284.725C93.4899 277.994 99.9993 268.628 103.217 257.97C106.434 247.312 106.195 235.909 102.532 225.395ZM82.8862 282.426C82.5735 282.672 82.2522 282.909 81.9302 283.126C81.6174 283.363 81.3061 283.59 80.9834 283.799C80.7089 283.997 80.4344 284.187 80.1507 284.366L80.0656 284.423C79.8571 284.565 79.6493 284.697 79.4408 284.83C78.6549 285.322 77.8599 285.795 77.0556 286.249L76.8003 286.39C76.4407 286.589 76.0811 286.778 75.7216 286.968C75.674 286.996 75.6173 287.015 75.5698 287.044L75.513 287.072C75.0584 287.309 74.5946 287.536 74.1314 287.754C72.3416 288.616 70.4983 289.362 68.6129 289.988C68.3668 290.073 68.1207 290.158 67.8746 290.234C64.4837 291.312 60.9867 292.023 57.4439 292.354C55.8913 292.496 54.3232 292.572 52.7395 292.572C48.3961 292.581 44.0706 292.014 39.8761 290.887C37.7238 290.325 35.6144 289.61 33.5639 288.748C33.4596 288.7 33.3455 288.663 33.2419 288.615C33.1384 288.568 33.0242 288.53 32.9199 288.483C32.8157 288.435 32.7022 288.388 32.5887 288.332C31.6993 287.944 30.8156 287.517 29.9574 287.073L29.5411 286.855C28.49 286.306 27.4588 285.72 26.4552 285.095C26.1616 284.914 25.8588 284.726 25.5751 284.527C25.4999 284.48 25.4332 284.433 25.3573 284.385C24.685 283.941 24.0098 283.477 23.3601 282.994C22.9154 282.663 22.4707 282.331 22.0353 281.99C21.3062 281.441 20.6055 280.855 19.9246 280.248C19.565 279.946 19.2153 279.614 18.8742 279.302C17.5321 278.062 16.2617 276.748 15.0692 275.364C14.672 274.909 14.2833 274.455 13.9138 273.982C13.8298 273.888 13.7507 273.79 13.6769 273.688C7.52675 265.927 3.82747 256.511 3.05086 246.639C2.27425 236.767 4.45552 226.888 9.31647 218.261C14.1774 209.634 21.4977 202.651 30.3438 198.201C39.1899 193.752 49.1609 192.038 58.985 193.278C68.8092 194.518 78.0413 198.657 85.5039 205.165C92.9665 211.674 98.3214 220.258 100.886 229.822C103.45 239.386 103.107 249.498 99.9017 258.867C96.6959 268.235 90.7723 276.437 82.8862 282.426Z" fill="#D6D6E3"/>
<path d="M119.569 302.835L81.6955 301.978C77.9075 287.304 79.6132 273.332 82.6359 260.456L120.509 261.314C116.679 274.851 116.355 289.139 119.569 302.835H119.569Z" fill="#F59E0B"/>
<path d="M89.1268 269.633L89.148 268.192L108.768 268.894L108.744 270.335L89.1268 269.633Z" fill="white"/>
<path d="M89.0438 275.397L89.0651 273.956L108.685 274.658L108.663 276.099L89.0438 275.397Z" fill="white"/>
<path d="M88.9616 281.161L88.9829 279.72L108.602 280.421L108.581 281.863L88.9616 281.161Z" fill="white"/>
<path d="M88.8785 286.926L88.8991 285.485L108.519 286.186L108.498 287.627L88.8785 286.926Z" fill="white"/>
<path d="M88.7963 292.691L88.8169 291.249L108.437 291.951L108.416 293.392L88.7963 292.691Z" fill="white"/>
<path d="M350.512 52.0501C348.016 44.8782 343.987 38.337 338.703 32.8827C333.42 27.4285 327.01 23.1925 319.921 20.4702C312.832 17.7478 305.235 16.6047 297.659 17.1206C290.083 17.6365 282.711 19.7989 276.056 23.457C269.402 27.1152 263.626 32.1809 259.13 38.301C254.635 44.4211 251.529 51.4482 250.029 58.8921C248.529 66.3361 248.671 74.0177 250.445 81.4012C252.218 88.7847 255.582 95.6924 260.3 101.642C260.769 102.229 261.256 102.823 261.753 103.395C261.791 103.432 261.818 103.469 261.856 103.507C263.077 104.914 264.375 106.253 265.744 107.518C266.101 107.846 266.476 108.184 266.85 108.502C267.562 109.139 268.293 109.749 269.053 110.33C269.352 110.564 269.64 110.799 269.952 111.023C271.151 111.932 272.398 112.775 273.682 113.582L273.739 113.611C274.104 113.835 274.479 114.061 274.854 114.276C275.524 114.68 276.222 115.063 276.915 115.429L277.356 115.654C278.368 116.179 279.399 116.675 280.458 117.134C280.674 117.228 280.909 117.322 281.124 117.415C281.143 117.424 281.152 117.424 281.171 117.434C281.668 117.64 282.165 117.837 282.671 118.021C284.333 118.655 286.029 119.2 287.75 119.651C292.143 120.822 296.67 121.414 301.216 121.412C302.875 121.412 304.515 121.337 306.136 121.178C309.841 120.836 313.498 120.098 317.045 118.975C317.054 118.975 317.063 118.966 317.072 118.966C319.313 118.251 321.501 117.383 323.623 116.367C323.632 116.358 323.65 116.358 323.66 116.349C324.138 116.124 324.598 115.88 325.066 115.646L325.291 115.534C325.666 115.337 326.041 115.141 326.415 114.934C327.353 114.419 328.271 113.875 329.182 113.294C329.434 113.144 329.679 112.985 329.932 112.817C330.288 112.583 330.643 112.339 330.99 112.085C331.449 111.767 331.913 111.439 332.359 111.101C332.5 110.998 332.65 110.895 332.79 110.783C341.567 104.118 348.008 94.8459 351.192 84.2953C354.376 73.7447 354.137 62.4571 350.512 52.0501Z" fill="white"/>
<path d="M328.265 108.615C323.825 106.276 319.191 104.326 314.414 102.787L313.806 96.0494L289.103 93.3858L285.967 101.999L277.101 105.325C276.784 105.446 276.482 105.603 276.202 105.794H276.193C275.192 106.47 272.671 108.245 272.473 109.435C272.379 110.022 274.006 110.371 274.144 110.944L274.853 112.397C275.524 112.8 276.221 113.184 276.914 113.549L277.355 113.774C278.367 114.299 279.399 114.795 280.458 115.255C280.673 115.349 280.907 115.442 281.123 115.535C281.142 115.545 281.151 115.545 281.17 115.554C281.667 115.76 282.164 115.957 282.67 116.141C284.332 116.776 286.028 117.32 287.749 117.771C292.142 118.942 296.669 119.534 301.215 119.532C302.874 119.532 304.514 119.458 306.135 119.298C309.84 118.956 313.497 118.218 317.044 117.096C317.053 117.096 317.062 117.087 317.071 117.087C319.312 116.372 321.501 115.503 323.622 114.487C323.631 114.478 323.649 114.478 323.66 114.469C324.137 114.244 324.597 114 325.066 113.766L325.29 113.654C325.665 113.457 326.041 113.261 326.415 113.055C327.353 112.539 328.271 111.996 329.182 111.415C329.434 111.265 329.679 111.105 329.932 110.937C330.289 110.703 330.644 110.459 330.991 110.206C330.111 109.655 329.202 109.121 328.265 108.615Z" fill="#D6D6E3"/>
<path d="M300.485 89.1275C310.311 89.1275 318.276 81.1623 318.276 71.3367C318.276 61.511 310.311 53.5458 300.485 53.5458C290.66 53.5458 282.694 61.511 282.694 71.3367C282.694 81.1623 290.66 89.1275 300.485 89.1275Z" fill="white"/>
<path d="M300.459 89.8284C297.643 89.8248 294.864 89.1777 292.336 87.9365C289.808 86.6953 287.597 84.8928 285.871 82.6667C284.146 80.4406 282.952 77.8496 282.38 75.0917C281.809 72.3337 281.875 69.4816 282.574 66.7532C283.273 64.0248 284.586 61.4921 286.413 59.3485C288.24 57.2049 290.533 55.5072 293.116 54.3847C295.699 53.2623 298.504 52.745 301.318 52.8721C304.132 52.9993 306.879 53.7677 309.351 55.1186C312.949 57.094 315.788 60.2102 317.421 63.9767C319.053 67.7431 319.387 71.9456 318.368 75.9222C317.349 79.8988 315.037 83.4236 311.794 85.9412C308.552 88.4589 304.564 89.8264 300.459 89.8284ZM300.514 54.2408C296.349 54.2337 292.324 55.7476 289.196 58.4983C286.068 61.249 284.052 65.0472 283.527 69.1793C283.002 73.3113 284.004 77.493 286.344 80.9386C288.685 84.3842 292.203 86.8566 296.238 87.8915C300.272 88.9264 304.546 88.4523 308.256 86.5586C311.966 84.6648 314.857 81.4816 316.385 77.6069C317.914 73.7322 317.975 69.4327 316.557 65.5161C315.139 61.5995 312.34 58.3354 308.686 56.3368C306.18 54.9664 303.37 54.2458 300.514 54.2408Z" fill="#D6D6E3"/>
<path d="M288.541 62.671C290.385 64.8508 293.499 65.4653 296.374 65.7177C303.096 66.0893 309.838 65.539 316.412 64.082C316.819 68.0292 315.708 72.2857 318.033 75.532C319.123 71.601 319.757 67.5576 319.922 63.4817C320.095 61.7327 319.865 59.9673 319.251 58.3205C318.924 57.495 318.371 56.7781 317.656 56.251C316.941 55.724 316.093 55.4081 315.208 55.3392C316.533 54.3337 318.086 53.67 319.728 53.4066L314.079 50.5678L315.53 49.0788L305.301 48.4525L308.263 46.5703C303.805 45.9576 299.295 45.8151 294.807 46.1452C292.723 46.2987 290.544 46.5921 288.854 47.7994C287.165 49.0067 286.19 51.4045 287.238 53.1794C285.926 53.395 284.69 53.942 283.648 54.7686C282.607 55.5952 281.793 56.6741 281.285 57.903C280.642 59.8567 280.487 61.938 280.833 63.9655C281.218 67.2182 281.974 70.4162 283.086 73.4972L288.541 62.671Z" fill="#D6D6E3"/>
<path d="M350.512 52.0501C348.016 44.8782 343.987 38.337 338.703 32.8827C333.42 27.4285 327.01 23.1925 319.921 20.4702C312.832 17.7478 305.235 16.6047 297.659 17.1206C290.083 17.6365 282.711 19.7989 276.056 23.457C269.402 27.1152 263.626 32.1809 259.13 38.301C254.635 44.4211 251.529 51.4482 250.029 58.8921C248.529 66.3361 248.671 74.0177 250.445 81.4012C252.218 88.7847 255.582 95.6924 260.3 101.642C260.769 102.229 261.256 102.823 261.753 103.395C261.791 103.432 261.818 103.469 261.856 103.507C263.077 104.914 264.375 106.253 265.744 107.518C266.101 107.846 266.476 108.184 266.85 108.502C267.562 109.139 268.293 109.749 269.053 110.33C269.352 110.564 269.64 110.799 269.952 111.023C271.151 111.932 272.398 112.775 273.682 113.582L273.739 113.611C274.104 113.835 274.479 114.061 274.854 114.276C275.524 114.68 276.222 115.063 276.915 115.429L277.356 115.654C278.368 116.179 279.399 116.675 280.458 117.134C280.674 117.228 280.909 117.322 281.124 117.415C281.143 117.424 281.152 117.424 281.171 117.434C281.668 117.64 282.165 117.837 282.671 118.021C284.333 118.655 286.029 119.2 287.75 119.651C292.143 120.822 296.67 121.414 301.216 121.412C302.875 121.412 304.515 121.337 306.136 121.178C309.841 120.836 313.498 120.098 317.045 118.975C317.054 118.975 317.063 118.966 317.072 118.966C319.313 118.251 321.501 117.383 323.623 116.367C323.632 116.358 323.65 116.358 323.66 116.349C324.138 116.124 324.598 115.88 325.066 115.646L325.291 115.534C325.666 115.337 326.041 115.141 326.415 114.934C327.353 114.419 328.271 113.875 329.182 113.294C329.434 113.144 329.679 112.985 329.932 112.817C330.288 112.583 330.643 112.339 330.99 112.085C331.449 111.767 331.913 111.439 332.359 111.101C332.5 110.998 332.65 110.895 332.79 110.783C341.567 104.118 348.008 94.8459 351.192 84.2953C354.376 73.7447 354.137 62.4571 350.512 52.0501ZM331.061 108.511C330.752 108.755 330.433 108.989 330.114 109.205C329.805 109.439 329.496 109.664 329.177 109.87C328.905 110.067 328.634 110.254 328.352 110.433L328.268 110.489C328.062 110.63 327.856 110.761 327.649 110.892C326.871 111.38 326.084 111.848 325.288 112.298L325.036 112.439C324.68 112.636 324.324 112.823 323.968 113.011C323.921 113.04 323.865 113.058 323.818 113.086L323.762 113.114C323.312 113.349 322.853 113.574 322.394 113.785C320.622 114.638 318.797 115.377 316.931 115.997C316.687 116.08 316.443 116.164 316.199 116.241C312.842 117.307 309.38 118.01 305.872 118.337C304.335 118.477 302.779 118.552 301.215 118.552C296.915 118.561 292.632 118 288.479 116.884C286.348 116.327 284.259 115.62 282.229 114.766C282.126 114.719 282.013 114.682 281.911 114.635C281.808 114.588 281.695 114.551 281.592 114.503C281.489 114.456 281.376 114.41 281.264 114.353C280.383 113.969 279.512 113.548 278.659 113.107L278.247 112.891C277.206 112.348 276.185 111.767 275.192 111.148C274.901 110.97 274.605 110.783 274.32 110.586C274.245 110.539 274.179 110.492 274.104 110.445C273.438 110.005 272.774 109.545 272.127 109.067C271.687 108.739 271.246 108.412 270.815 108.074C270.093 107.53 269.4 106.949 268.725 106.349C268.369 106.049 268.022 105.721 267.685 105.412C266.356 104.185 265.098 102.883 263.918 101.513C263.524 101.063 263.14 100.614 262.774 100.145C262.691 100.052 262.613 99.9555 262.54 99.8549C256.451 92.1716 252.789 82.849 252.02 73.0759C251.252 63.3028 253.411 53.5222 258.224 44.9814C263.036 36.4406 270.283 29.5267 279.041 25.1215C287.799 20.7163 297.67 19.0193 307.396 20.2471C317.122 21.4748 326.262 25.5716 333.651 32.0151C341.039 38.4585 346.34 46.9565 348.879 56.4253C351.418 65.8941 351.08 75.9045 347.906 85.18C344.733 94.4554 338.869 102.576 331.062 108.505L331.061 108.511Z" fill="#D6D6E3"/>
<path d="M367.378 122.008L329.885 121.159C326.134 106.632 327.823 92.7989 330.815 80.0527L368.309 80.9012C364.516 94.3026 364.196 108.449 367.378 122.008Z" fill="#F59E0B"/>
<path d="M337.238 89.1401L337.259 87.7149L356.683 88.4091L356.663 89.8343L337.238 89.1401Z" fill="white"/>
<path d="M337.157 94.8463L337.178 93.421L356.602 94.116L356.581 95.5413L337.157 94.8463Z" fill="white"/>
<path d="M337.071 100.555L337.092 99.1297L356.516 99.8239L356.495 101.249L337.071 100.555Z" fill="white"/>
<path d="M336.993 106.259L337.014 104.834L356.438 105.528L356.417 106.954L336.993 106.259Z" fill="white"/>
<path d="M336.911 111.966L336.931 110.54L356.356 111.235L356.335 112.661L336.911 111.966Z" fill="white"/>
<path d="M634.48 37.106C631.838 29.5132 627.571 22.5881 621.976 16.8139C616.382 11.0397 609.596 6.55528 602.09 3.67338C594.585 0.791485 586.541 -0.418521 578.52 0.127755C570.499 0.67403 562.694 2.96344 555.648 6.83631C548.603 10.7092 542.487 16.0723 537.728 22.5517C532.968 29.031 529.679 36.4707 528.09 44.3517C526.501 52.2328 526.651 60.3657 528.528 68.1831C530.405 76.0005 533.965 83.3143 538.96 89.6145C539.456 90.2398 539.972 90.865 540.497 91.4697C540.537 91.5095 540.567 91.5493 540.607 91.5904C541.9 93.0806 543.275 94.4983 544.725 95.8372C545.102 96.1842 545.498 96.5415 545.896 96.8788C546.65 97.5535 547.424 98.1987 548.227 98.8136C549.797 100.051 551.433 101.2 553.129 102.257L553.189 102.286C554.291 102.971 555.411 103.606 556.553 104.211L557.019 104.45C558.091 105.006 559.182 105.531 560.303 106.019C560.532 106.118 560.78 106.217 561.008 106.316C561.028 106.326 561.038 106.326 561.058 106.336C563.323 107.279 565.65 108.065 568.023 108.69C572.674 109.93 577.468 110.557 582.281 110.555C584.037 110.555 585.773 110.476 587.49 110.307C591.412 109.944 595.283 109.16 599.038 107.971C599.048 107.971 599.058 107.961 599.067 107.961C601.44 107.206 603.757 106.287 606.003 105.213C606.013 105.203 606.033 105.203 606.043 105.193C606.549 104.955 607.035 104.697 607.531 104.449L607.77 104.328C608.167 104.12 608.563 103.911 608.96 103.694C609.952 103.15 610.924 102.572 611.887 101.957C612.155 101.799 612.413 101.63 612.681 101.451C613.554 100.875 614.417 100.26 615.251 99.635C615.4 99.5258 615.558 99.4165 615.708 99.2976C625.003 92.2417 631.826 82.4239 635.198 71.2516C638.571 60.0793 638.319 48.1267 634.48 37.106Z" fill="white"/>
<path d="M584.833 69.5519C593.489 69.5519 600.506 62.5346 600.506 53.8784C600.506 45.2222 593.489 38.205 584.833 38.205C576.177 38.205 569.16 45.2222 569.16 53.8784C569.16 62.5346 576.177 69.5519 584.833 69.5519Z" fill="white"/>
<path d="M612.88 94.7141V99.9729C611.915 100.588 610.945 101.164 609.953 101.709C609.556 101.928 609.16 102.136 608.762 102.344L608.524 102.465C608.028 102.713 607.542 102.971 607.036 103.209C607.026 103.219 607.006 103.219 606.996 103.229C604.75 104.303 602.432 105.221 600.06 105.977C600.05 105.977 600.041 105.987 600.03 105.987C596.275 107.175 592.403 107.957 588.481 108.319C586.764 108.488 585.028 108.567 583.271 108.567C578.458 108.568 573.665 107.941 569.014 106.701C566.641 106.077 564.314 105.29 562.048 104.348C562.028 104.338 562.018 104.338 561.998 104.328C561.77 104.229 561.522 104.129 561.294 104.03C560.173 103.544 559.081 103.018 558.01 102.461L557.544 102.223C556.402 101.619 555.281 100.983 554.18 100.298L554.119 100.268C552.424 99.2114 550.787 98.062 549.218 96.8251C548.414 96.2101 547.64 95.565 546.886 94.8903C546.489 94.5529 546.092 94.1957 545.715 93.8486C544.265 92.5098 542.891 91.092 541.597 89.6018C541.768 88.5684 542.021 87.55 542.351 86.556L542.361 86.5463C542.42 86.3769 542.49 86.2113 542.569 86.0503C542.624 85.9079 542.687 85.7689 542.757 85.6338C544.533 82.3098 547.748 81.4866 551.737 81.308C553.99 81.209 556.48 81.3176 559.11 81.2881C560.498 81.2784 561.937 81.2277 563.376 81.0998C572.455 80.276 570.808 74.9181 571.214 72.031C571.621 69.2332 574.142 71.6538 574.31 71.8125L574.32 71.8222C579.457 74.2266 585.142 75.2229 590.791 74.7093C591.763 74.5886 592.735 74.521 593.708 74.4909C596.268 74.4613 595.712 75.1951 594.83 75.8005C594.401 76.0826 593.953 76.3346 593.49 76.5548C593.49 76.5548 593.083 79.0352 592.666 82.7461C592.269 86.2983 604.781 87.5288 607.232 88.3025H607.242C608.641 88.8169 609.889 89.6727 610.873 90.7921C611.857 91.9114 612.546 93.259 612.878 94.7122L612.88 94.7141Z" fill="#D6D6E3"/>
<path d="M634.48 37.106C631.838 29.5132 627.571 22.5881 621.976 16.8139C616.382 11.0397 609.596 6.55528 602.09 3.67338C594.585 0.791485 586.541 -0.418521 578.52 0.127755C570.499 0.67403 562.694 2.96344 555.648 6.83631C548.603 10.7092 542.487 16.0723 537.728 22.5517C532.968 29.031 529.679 36.4707 528.09 44.3517C526.501 52.2328 526.651 60.3657 528.528 68.1831C530.405 76.0005 533.965 83.3143 538.96 89.6145C539.456 90.2398 539.972 90.865 540.497 91.4697C540.537 91.5095 540.567 91.5493 540.607 91.5904C541.9 93.0806 543.275 94.4983 544.725 95.8372C545.102 96.1842 545.498 96.5415 545.896 96.8788C546.65 97.5535 547.424 98.1987 548.227 98.8136C549.797 100.051 551.433 101.2 553.129 102.257L553.189 102.286C554.291 102.971 555.411 103.606 556.553 104.211L557.019 104.45C558.091 105.006 559.182 105.531 560.303 106.019C560.532 106.118 560.78 106.217 561.008 106.316C561.028 106.326 561.038 106.326 561.058 106.336C563.323 107.279 565.65 108.065 568.023 108.69C572.674 109.93 577.468 110.557 582.281 110.555C584.037 110.555 585.773 110.476 587.49 110.307C591.412 109.944 595.283 109.16 599.038 107.971C599.048 107.971 599.058 107.961 599.067 107.961C601.44 107.206 603.757 106.287 606.003 105.213C606.013 105.203 606.033 105.203 606.043 105.193C606.549 104.955 607.035 104.697 607.531 104.449L607.77 104.328C608.167 104.12 608.563 103.911 608.96 103.694C609.952 103.15 610.924 102.572 611.887 101.957C612.155 101.799 612.413 101.63 612.681 101.451C613.554 100.875 614.417 100.26 615.251 99.635C615.4 99.5258 615.558 99.4165 615.708 99.2976C625.003 92.2417 631.826 82.4239 635.198 71.2516C638.571 60.0793 638.319 48.1267 634.48 37.106ZM613.884 96.8879C613.556 97.1456 613.22 97.3942 612.882 97.6223C612.554 97.8704 612.227 98.1087 611.89 98.3266C611.602 98.5348 611.314 98.7334 611.017 98.9223C610.768 99.0906 610.52 99.25 610.272 99.4087C609.449 99.9245 608.616 100.421 607.773 100.897L607.504 101.046C607.127 101.254 606.75 101.453 606.373 101.649C606.323 101.679 606.264 101.699 606.214 101.729L606.154 101.759C605.678 102.007 605.192 102.245 604.706 102.473C602.83 103.377 600.898 104.159 598.921 104.815C598.664 104.904 598.405 104.996 598.148 105.073C594.593 106.203 590.927 106.948 587.213 107.295C585.584 107.444 583.939 107.523 582.282 107.523C577.729 107.533 573.195 106.939 568.798 105.757C566.541 105.168 564.33 104.418 562.18 103.514C561.952 103.425 561.723 103.326 561.505 103.237C561.384 103.187 561.277 103.138 561.157 103.078C560.225 102.671 559.302 102.225 558.399 101.758L557.963 101.53C556.862 100.954 555.78 100.339 554.728 99.6845C554.342 99.4461 553.955 99.1981 553.577 98.9404C552.387 98.1558 551.224 97.3109 550.095 96.4298C549.331 95.8541 548.597 95.2391 547.882 94.6042C547.505 94.2868 547.138 93.9404 546.781 93.6121C545.374 92.3131 544.043 90.9351 542.792 89.4848C542.376 89.0086 541.969 88.5325 541.582 88.0364C541.494 87.9382 541.411 87.8355 541.334 87.7286C534.887 79.5935 531.009 69.7225 530.195 59.3745C529.381 49.0266 531.668 38.6707 536.763 29.6276C541.859 20.5845 549.532 13.264 558.805 8.59969C568.078 3.93542 578.53 2.13878 588.828 3.43889C599.126 4.73901 608.804 9.07697 616.627 15.8995C624.449 22.7221 630.063 31.72 632.751 41.7458C635.439 51.7716 635.08 62.3708 631.72 72.1918C628.359 82.0127 622.15 90.6102 613.884 96.8879Z" fill="#D6D6E3"/>
<path d="M649.863 124L610.949 123.119C607.056 108.041 608.809 93.6839 611.915 80.4516L650.829 81.3327C646.892 95.2429 646.56 109.926 649.863 124Z" fill="#F59E0B"/>
<path d="M618.581 89.8837L618.603 88.4027L638.763 89.1233L638.742 90.6043L618.581 89.8837Z" fill="white"/>
<path d="M618.497 95.8058L618.519 94.3248L638.678 95.049L638.657 96.53L618.497 95.8058Z" fill="white"/>
<path d="M618.409 101.729L618.43 100.248L638.59 100.969L638.569 102.45L618.409 101.729Z" fill="white"/>
<path d="M618.327 107.652L618.348 106.171L638.509 106.892L638.487 108.373L618.327 107.652Z" fill="white"/>
<path d="M618.242 113.575L618.263 112.094L638.424 112.818L638.403 114.298L618.242 113.575Z" fill="white"/>
<path d="M597.884 67.5893C596.163 64.3606 597.703 60.2122 596.255 56.8519C594.98 53.8947 591.774 52.3317 588.959 50.7107C586.927 49.5447 584.837 47.9744 583.825 45.9853C581.139 45.1593 578.286 45.0346 575.539 45.6232C572.968 46.1947 570.474 47.4609 568.9 49.5459C567.326 51.631 566.842 54.6063 568.116 56.8863C567.297 56.4745 566.585 55.8792 566.035 55.1468C565.485 54.4145 565.111 53.5649 564.944 52.6644C564.776 51.7638 564.818 50.8367 565.068 49.9554C565.318 49.074 565.767 48.2622 566.382 47.5834C565.442 46.2209 564.867 44.6398 564.712 42.9913C564.557 41.3429 564.829 39.6824 565.5 38.1688C566.867 35.1598 575.644 32.785 578.957 32.3964L578.585 32.0675C578.585 32.0675 576.855 28.3433 576.866 27.4121C576.889 25.4362 576.927 23.3874 577.799 21.6119C579.118 18.9299 582.113 17.3874 585.082 16.8581C588.898 16.1713 593.145 16.9655 595.912 19.6553C598.68 22.3451 599.431 27.091 597.026 30.0958C603.039 33.6474 606.38 38.6824 608.3 45.3299C610.22 51.9774 604.958 60.357 601.752 66.506C601.706 66.4955 601.661 66.4824 601.616 66.4668C602.754 68.036 604.296 69.2667 606.079 70.0274C605.242 70.4704 604.309 70.6986 603.363 70.6913C602.257 70.7066 601.166 70.4275 600.203 69.8823C599.241 69.3372 598.44 68.5458 597.884 67.5893Z" fill="#D6D6E3"/>
<path d="M558.464 686.773C556.272 681.786 554.193 676.05 556.386 671.064C557.817 668.127 560.275 665.816 563.295 664.57C566.284 663.351 569.433 662.574 572.646 662.263C582.728 660.941 592.931 660.801 603.046 661.848C603.785 667.687 602.225 673.61 600.885 679.248C599.669 684.443 598.973 685.212 593.612 685.48C590.142 685.672 559.286 688.612 558.464 686.773Z" fill="#9F616A"/>
<path d="M650.987 653.13C733.044 653.13 799.564 634.523 799.564 611.57C799.564 588.617 733.044 570.01 650.987 570.01C568.93 570.01 502.41 588.617 502.41 611.57C502.41 634.523 568.93 653.13 650.987 653.13Z" fill="#090814"/>
<path d="M614.041 414.876C605.148 411.656 597.761 405.067 592.222 397.39C586.683 389.713 582.866 380.941 579.558 372.099C577.813 367.499 576.15 362.594 576.971 357.735C582.322 356.519 588.18 354.735 590.945 349.983C592.66 347.023 592.783 343.637 592.2 340.221C583.007 334.819 575.757 326.649 571.486 316.878C567.215 307.108 566.143 296.237 568.422 285.821C570.701 275.404 576.215 265.975 584.176 258.881C592.136 251.786 602.136 247.39 612.745 246.321C623.354 245.252 634.03 247.564 643.246 252.927C652.462 258.289 659.747 266.429 664.059 276.181C668.371 285.933 669.49 296.799 667.255 307.225C665.02 317.651 659.546 327.104 651.616 334.232C652.843 336.86 654.548 339.238 656.642 341.245C659.642 344.06 663.468 345.826 667.205 347.539L676.411 351.76C678.05 352.371 679.536 353.332 680.766 354.576C681.97 356.231 682.69 358.188 682.845 360.229C684.493 371.161 682.669 382.335 677.628 392.175C672.537 402.017 664.079 409.702 653.796 413.83C647.741 416.035 641.369 417.248 634.927 417.421C633.652 417.478 632.375 417.508 631.094 417.51C625.3 417.631 619.529 416.74 614.041 414.876Z" fill="#9F616A"/>
<path d="M760.238 447.71L756.311 423.917C754.326 411.981 752.28 399.817 746.731 389.059C743.084 382.015 691.997 354.232 687.114 351.177C682.231 348.122 676.153 345.982 670.75 347.935C669.878 357.235 668.95 366.735 665.004 375.209C662.435 380.722 658.666 385.591 653.972 389.46C649.279 393.329 643.781 396.1 637.879 397.57C631.977 399.04 625.821 399.173 619.861 397.958C613.901 396.744 608.288 394.212 603.433 390.549C594.176 383.577 588.243 372.823 585.476 361.572C584.801 358.826 584.032 355.681 581.507 354.424C578.774 353.051 575.486 354.714 573.195 356.731C568.987 360.461 565.641 365.801 560.176 367.058C558.202 367.515 520.746 384.69 518.627 387.672C516.508 390.654 515.51 394.343 514.47 397.918C525.826 423.207 536.216 448.527 547.57 473.818C548.102 474.771 548.384 475.843 548.391 476.935C548.163 478.068 547.68 479.134 546.978 480.052C541.409 488.998 541.586 500.252 542.198 510.765C542.81 521.278 543.56 532.386 538.863 541.811C537.585 544.398 530.835 573.957 532.493 580.254H767.311C762.833 567.942 764.537 543.235 765.472 530.164C766.127 521.021 764.433 511.89 763.706 502.745C762.182 484.064 763.324 466.349 760.238 447.71Z" fill="#E6E6E6"/>
<path d="M772.259 572.971C775.718 571.652 779.532 572.126 783.244 572.628C795.18 574.259 807.297 575.928 818.362 580.701C823.557 582.919 828.502 585.896 832.015 590.27C835.132 594.208 836.95 599.029 838.67 603.777L842.66 614.677C844.177 618.833 845.715 623.077 846.146 627.488C847.392 640.569 838.446 652.902 827.195 659.697C815.944 666.492 802.695 668.913 789.795 671.448C776.895 673.983 763.935 676.789 751.082 679.76C745.087 681.316 739.005 682.512 732.868 683.344C719.112 684.902 704.732 682.605 691.662 687.157C686.467 688.975 681.362 691.677 675.973 692.934C672.396 693.718 668.778 694.301 665.136 694.679L640.397 697.505C635.366 698.177 630.302 698.565 625.228 698.667C614.422 698.667 603.794 696.111 593.299 693.556C592.183 693.36 591.121 692.932 590.182 692.299C588.52 690.99 588.156 688.673 587.917 686.574C586.86 677.285 585.932 667.985 585.133 658.674C584.884 655.651 584.697 652.374 586.349 649.832C588.427 646.715 592.476 645.739 596.178 645.132C611.862 642.566 627.751 641.463 643.64 641.838C649.677 635.801 659.63 635.771 667.54 632.487C670.449 631.151 673.264 629.62 675.966 627.905C690.103 619.656 705.902 614.662 722.212 613.286C725.407 613.188 728.582 612.735 731.677 611.935C737.797 610.035 743.377 604.858 749.661 606.125C750.441 603.974 750.98 601.096 752.778 599.625C753.672 598.867 754.778 598.357 755.594 597.547C757.33 595.792 757.485 593.027 757.225 590.575C756.965 588.123 756.38 585.61 757.014 583.219C757.278 582.314 757.666 581.45 758.168 580.652C761.288 575.194 765.999 572.452 772.259 572.971Z" fill="#090814"/>
<path d="M568.024 693.194C561.592 700.644 555.93 703.304 545.862 703.064C539.669 702.918 533.484 702.596 527.306 702.098C523.084 701.641 518.839 701.442 514.593 701.503C501.772 702.003 489.393 707.872 476.607 706.844C474.716 706.695 472.846 706.347 471.028 705.805C468.143 705.001 465.536 703.415 463.496 701.223C461.044 698.449 459.87 694.771 459.196 691.134C455.778 672.495 465.149 652.192 481.556 642.706C483.697 641.324 486.13 640.459 488.663 640.181C491.147 640.172 493.602 640.713 495.853 641.765L496.009 641.827C502.674 644.57 508.727 648.611 513.817 653.714C514.589 654.598 515.51 655.34 516.539 655.906C517.566 656.293 518.652 656.496 519.749 656.506L533.402 657.368C535.715 657.439 538.014 657.758 540.259 658.319C542.734 659.183 545.144 660.225 547.469 661.436C554.814 664.719 562.961 665.592 570.899 666.859C571.664 666.901 572.394 667.193 572.977 667.69C573.294 668.084 573.514 668.547 573.621 669.041C574.73 673.218 574.8 677.603 573.826 681.814C572.851 686.024 570.862 689.932 568.031 693.198L568.024 693.194Z" fill="#323144"/>
<path d="M760.373 667.665C768.01 667.454 776.581 667.072 782.192 672.216C787.543 677.075 788.249 685.103 788.603 692.316L789.009 700.701C789.134 703.257 789.237 705.896 788.209 708.265C786.38 712.422 781.362 714.426 776.78 714.188C772.198 713.95 767.991 711.943 763.803 710.136C752.435 705.239 740.599 701.51 728.477 699.008C728.872 693.208 729.53 687.438 730.451 681.698C731.085 677.719 731.191 671.059 733.851 667.755C736.667 664.269 740.335 666.155 744.157 666.804C749.522 667.622 754.954 667.911 760.375 667.666L760.373 667.665Z" fill="#9F616A"/>
<path d="M558.579 583.423C558.579 584.462 556.948 583.423 556.802 582.312C555.659 573.906 548.985 566.977 541.217 563.612C533.449 560.247 524.593 560.069 516.177 560.866C503.45 562.071 489.215 566.944 484.508 578.841C483.408 581.625 482.908 584.641 481.557 587.309C480.057 590.239 477.619 592.577 475.999 595.424C473.204 600.348 473.09 606.385 474.099 611.954C476.81 626.812 486.972 639.523 499.284 648.319C511.596 657.115 525.984 662.376 540.335 667.119C578.275 679.632 617.202 688.93 656.702 694.913C663.102 695.879 669.564 696.773 675.695 698.83C681.181 700.669 686.314 703.423 691.675 705.584C704.139 710.592 717.554 712.384 730.845 714.14C733.11 714.431 735.704 714.64 737.38 713.101C739.541 711.094 738.824 707.608 738.211 704.727C735.955 693.793 737.84 682.412 743.5 672.789C745.718 669.049 748.611 665.214 748.2 660.882C747.7 655.833 742.672 652.258 737.664 651.448C732.656 650.638 727.564 651.833 722.536 652.487C720.795 652.88 718.973 652.702 717.341 651.978C716.593 651.473 715.916 650.873 715.325 650.191C711.861 646.849 707.427 644.69 702.66 644.023C697.893 643.357 693.037 644.217 688.789 646.481C686.929 647.52 684.114 645.203 682.181 644.33L660.352 634.43C635.252 623.074 610.023 611.666 583.466 604.476C581.347 604.06 579.333 603.222 577.543 602.014C576.224 600.975 575.278 599.562 574.057 598.409C571.408 595.909 567.719 594.909 564.54 593.128C561.361 591.347 557.831 586.987 558.579 583.423Z" fill="#090814"/>
<path d="M880.244 720.757C876.758 727.23 869.979 731.257 862.71 732.924C860.885 733.336 859.029 733.6 857.161 733.714C847.961 734.285 838.887 731.74 830.022 729.226L817.991 725.818C815.923 725.167 813.802 724.694 811.653 724.405C808.728 724.209 805.791 724.31 802.886 724.705C788.666 726.028 773.937 718.714 759.895 716.123C758.72 715.996 758.16 702.855 759.895 699.395C761.63 695.935 762.783 664.595 766.389 665.077C769.995 665.559 773.526 666.577 777.153 666.854C787.813 667.706 798.712 662.206 808.948 665.305C811.202 665.99 813.333 667.082 815.619 667.684C820.075 668.681 824.73 668.278 828.949 666.531C830.449 665.97 831.907 665.294 833.364 664.631C836.169 663.171 839.156 662.091 842.247 661.421C852.232 659.707 861.49 666.616 869.022 673.357C871.608 675.503 873.897 677.984 875.828 680.734C877.765 684.073 879.167 687.695 879.985 691.467C882.722 701.099 884.997 711.926 880.244 720.757Z" fill="#323144"/>
<path d="M550.365 546.727C548.932 551.692 486.412 489.443 491.433 480.827C492.161 479.549 492.9 478.282 493.651 477.027C495.794 473.393 498.201 469.92 500.851 466.637C507.083 459.125 515.095 453.348 523.023 447.654C523.628 447.155 524.339 446.8 525.101 446.615H525.226C526.12 446.583 542.483 466.215 543.27 466.637C554.263 471.385 556.132 526.879 550.365 546.727Z" fill="#9F616A"/>
<path d="M513.84 398.68C512.828 399.74 512.042 400.995 511.533 402.369C503.134 421.297 498.173 441.569 496.883 462.236C496.906 463.244 496.674 464.242 496.208 465.136C495.749 465.731 495.238 466.284 494.682 466.789C494.176 467.389 493.799 468.086 493.573 468.837C493.347 469.588 493.278 470.378 493.37 471.157C493.461 471.936 493.712 472.688 494.106 473.366C494.499 474.044 495.028 474.635 495.659 475.101C497.373 471.87 501.477 470.821 505.125 470.54C522.591 469.158 539.651 477.283 557.168 476.667C555.932 472.396 554.155 468.293 553.147 463.967C548.689 444.777 559.802 423.883 552.991 405.398C551.629 401.698 549.354 398.063 545.77 396.442C544.286 395.843 542.733 395.431 541.147 395.216C536.721 394.416 527.91 390.998 523.629 392.364C522.045 392.873 521.429 394.364 520.117 395.252C518.172 396.54 515.533 396.984 513.84 398.68Z" fill="#E6E6E6"/>
<path d="M774.45 436.499H558.694C554.292 436.499 550.724 440.067 550.724 444.469V576.066C550.724 580.468 554.292 584.036 558.694 584.036H774.45C778.852 584.036 782.42 580.468 782.42 576.066V444.469C782.42 440.067 778.852 436.499 774.45 436.499Z" fill="#3F3D56"/>
<path opacity="0.2" d="M774.45 436.499H558.694C554.292 436.499 550.724 440.067 550.724 444.469V576.066C550.724 580.468 554.292 584.036 558.694 584.036H774.45C778.852 584.036 782.42 580.468 782.42 576.066V444.469C782.42 440.067 778.852 436.499 774.45 436.499Z" fill="black"/>
<path d="M666.052 516.503C669.495 516.503 672.286 513.712 672.286 510.269C672.286 506.826 669.495 504.035 666.052 504.035C662.609 504.035 659.818 506.826 659.818 510.269C659.818 513.712 662.609 516.503 666.052 516.503Z" fill="white"/>
<path d="M640.844 319.32C637.367 317.482 633.329 317.103 629.566 315.96C616.103 311.872 607.084 296.653 609.966 282.881C610.498 281.115 610.737 279.273 610.673 277.429C610.173 273.35 605.996 270.718 601.994 269.784C597.992 268.85 593.734 268.984 589.908 267.484C584.002 265.164 580.079 259.094 579.228 252.805C578.615 246.437 580.033 240.039 583.277 234.525L584.723 238.685C586.928 236.818 588.564 234.371 589.446 231.62C591.089 231.896 592.634 232.589 593.932 233.633C595.23 234.678 596.239 236.037 596.861 237.583C599.181 238.951 599.516 233.332 602.079 232.503C603.206 232.362 604.346 232.643 605.279 233.292C610.444 235.701 616.444 233.641 621.985 232.306C631.579 230.005 641.58 229.993 651.179 232.272C657.556 233.793 663.869 236.442 668.432 241.149C672.001 245.204 674.742 249.918 676.5 255.025C681.394 267.343 684.628 280.671 683.012 293.825C681.666 304.59 677.163 314.716 670.069 322.925C666.369 327.183 654.316 342.037 647.705 339.505C639.398 336.325 650.632 324.495 640.844 319.32Z" fill="#2F2E41"/>
<path d="M384.997 359.896H280.421C279.104 359.894 277.842 359.37 276.911 358.438C275.98 357.507 275.456 356.244 275.456 354.926V212.965C275.457 211.649 275.981 210.387 276.912 209.456C277.843 208.525 279.105 208.002 280.421 208H384.997C386.314 208.002 387.576 208.525 388.506 209.456C389.437 210.387 389.961 211.649 389.963 212.965V354.927C389.962 356.244 389.438 357.507 388.508 358.439C387.577 359.37 386.314 359.894 384.997 359.896Z" fill="#F2F2F2"/>
<path d="M310.475 264.101C310.247 264.118 310.026 264.196 309.837 264.325C310.799 264.265 311.755 264.133 312.697 263.928L310.475 264.101Z" fill="#2F2E41"/>
<path d="M308.573 224.995C304.179 224.996 299.909 226.447 296.424 229.123C292.939 231.8 290.435 235.551 289.3 239.796C288.166 244.041 288.464 248.542 290.149 252.6C291.835 256.658 294.812 260.047 298.62 262.239C299.631 262.825 300.692 263.319 301.791 263.716L301.975 263.78C304.095 264.524 306.326 264.903 308.572 264.9C309.007 264.9 309.441 264.886 309.869 264.854C310.858 264.793 311.841 264.657 312.81 264.447C313.352 264.329 313.883 264.188 314.387 264.034C314.509 263.999 314.624 263.963 314.749 263.923C319.266 262.453 323.111 259.419 325.591 255.368C328.072 251.317 329.026 246.513 328.281 241.821C327.537 237.13 325.144 232.857 321.531 229.773C317.918 226.688 313.324 224.993 308.573 224.993V224.995ZM320.148 259.895C318.427 261.223 316.489 262.245 314.421 262.915L314.079 263.023C313.602 263.17 313.1 263.299 312.582 263.411C311.666 263.611 310.736 263.74 309.8 263.799C309.392 263.827 308.985 263.841 308.571 263.841C306.445 263.842 304.333 263.483 302.326 262.78L302.15 262.719C301.057 262.326 300.004 261.831 299.005 261.24C295.523 259.191 292.791 256.079 291.21 252.361C289.628 248.644 289.281 244.518 290.218 240.588C291.156 236.659 293.329 233.134 296.419 230.531C299.508 227.929 303.351 226.386 307.382 226.129C311.414 225.872 315.421 226.915 318.816 229.105C322.211 231.295 324.814 234.515 326.242 238.294C327.671 242.073 327.85 246.21 326.752 250.098C325.655 253.985 323.34 257.419 320.147 259.893L320.148 259.895Z" fill="#CCCCCC"/>
<path d="M364.753 244.87H335.162C334.541 244.87 333.945 244.623 333.506 244.183C333.067 243.744 332.82 243.148 332.82 242.527C332.82 241.906 333.067 241.31 333.506 240.87C333.945 240.431 334.541 240.184 335.162 240.184H364.753C365.374 240.184 365.97 240.431 366.41 240.87C366.849 241.31 367.096 241.906 367.096 242.527C367.096 243.148 366.849 243.744 366.41 244.183C365.97 244.623 365.374 244.87 364.753 244.87Z" fill="#E6E6E6"/>
<path d="M374.409 252.771H335.162C334.541 252.771 333.945 252.524 333.505 252.084C333.066 251.645 332.819 251.049 332.819 250.428C332.819 249.807 333.066 249.211 333.505 248.771C333.945 248.332 334.541 248.085 335.162 248.085H374.41C375.031 248.085 375.627 248.332 376.066 248.771C376.506 249.211 376.753 249.807 376.753 250.428C376.753 251.049 376.506 251.645 376.066 252.084C375.627 252.524 375.031 252.771 374.41 252.771H374.409Z" fill="#E6E6E6"/>
<path d="M364.708 283.076H291.009C290.388 283.076 289.792 282.829 289.353 282.39C288.913 281.95 288.666 281.354 288.666 280.733C288.666 280.112 288.913 279.516 289.353 279.077C289.792 278.637 290.388 278.39 291.009 278.39H364.709C365.33 278.39 365.926 278.637 366.365 279.077C366.805 279.516 367.051 280.112 367.051 280.733C367.051 281.354 366.805 281.95 366.365 282.39C365.926 282.829 365.33 283.076 364.709 283.076H364.708Z" fill="#E6E6E6"/>
<path d="M374.365 290.974H291.009C290.388 290.974 289.792 290.728 289.353 290.288C288.913 289.849 288.666 289.253 288.666 288.632C288.666 288.01 288.913 287.415 289.353 286.975C289.792 286.536 290.388 286.289 291.009 286.289H374.366C374.987 286.289 375.583 286.536 376.022 286.975C376.461 287.415 376.708 288.01 376.708 288.632C376.708 289.253 376.461 289.849 376.022 290.288C375.583 290.728 374.987 290.974 374.366 290.974H374.365Z" fill="#E6E6E6"/>
<path d="M428.622 263.201C428.718 262.311 428.538 261.414 428.107 260.63C427.675 259.847 427.013 259.215 426.21 258.821L345.616 219.43C344.58 218.924 343.386 218.849 342.296 219.223C341.206 219.597 340.309 220.389 339.803 221.424L309.569 283.272C309.065 284.308 308.991 285.501 309.366 286.591C309.74 287.681 310.531 288.577 311.565 289.085L392.159 328.475C393.195 328.98 394.389 329.053 395.478 328.679C396.568 328.304 397.465 327.513 397.972 326.479L428.202 264.634C428.424 264.184 428.566 263.699 428.622 263.2V263.201Z" fill="white"/>
<path d="M428.622 263.201C428.718 262.311 428.538 261.414 428.107 260.63C427.675 259.847 427.013 259.215 426.21 258.821L345.616 219.43C344.58 218.924 343.386 218.849 342.296 219.223C341.206 219.597 340.309 220.389 339.803 221.424L309.569 283.272C309.065 284.308 308.991 285.501 309.366 286.591C309.74 287.681 310.531 288.577 311.565 289.085L392.159 328.475C393.195 328.98 394.389 329.053 395.478 328.679C396.568 328.304 397.465 327.513 397.972 326.479L428.202 264.634C428.424 264.184 428.566 263.699 428.622 263.2V263.201ZM397.519 326.256C397.071 327.168 396.279 327.866 395.318 328.197C394.356 328.527 393.303 328.462 392.389 328.017L311.795 288.627C310.882 288.179 310.184 287.388 309.854 286.426C309.524 285.464 309.588 284.411 310.034 283.497L340.261 221.65C340.709 220.737 341.5 220.039 342.462 219.709C343.423 219.379 344.476 219.444 345.39 219.889L425.984 259.279C426.897 259.727 427.595 260.518 427.925 261.48C428.256 262.442 428.191 263.495 427.745 264.409L397.519 326.256Z" fill="#3F3D56"/>
<path d="M419.828 266.015L398.722 309.203C398.581 309.491 398.332 309.712 398.029 309.816C397.725 309.92 397.393 309.9 397.105 309.759L323.792 273.928C323.74 273.903 323.69 273.873 323.643 273.839C323.403 273.676 323.229 273.432 323.155 273.151C323.08 272.871 323.108 272.572 323.235 272.311L344.342 229.124C344.483 228.835 344.733 228.615 345.036 228.511C345.339 228.406 345.671 228.427 345.96 228.567L419.271 264.399C419.559 264.54 419.78 264.789 419.884 265.092C419.988 265.396 419.968 265.728 419.827 266.016L419.828 266.015Z" fill="#E6E6E6"/>
<path d="M355.467 263.819C361.33 263.819 366.083 259.066 366.083 253.202C366.083 247.339 361.33 242.586 355.467 242.586C349.603 242.586 344.85 247.339 344.85 253.202C344.85 259.066 349.603 263.819 355.467 263.819Z" fill="#F59E0B"/>
<path d="M371.013 297.221L324.219 274.352C324.16 274.324 324.104 274.289 324.051 274.25L364.917 246.731C365.169 246.558 365.462 246.455 365.766 246.433C366.071 246.41 366.376 246.469 366.65 246.603C366.924 246.737 367.158 246.942 367.328 247.196C367.497 247.45 367.596 247.744 367.614 248.049L369.894 281.035L370.004 282.614L371.013 297.221Z" fill="#090814"/>
<path opacity="0.2" d="M371.014 297.22L355.038 289.412L368.448 281.853L369.414 281.309L369.897 281.036L370.006 282.614L371.014 297.22Z" fill="black"/>
<path d="M397.069 309.953L356.596 290.173L370.007 282.614L370.973 282.069L388.449 272.219C388.74 272.08 389.057 272.005 389.38 271.998C389.702 271.99 390.023 272.05 390.32 272.174C390.618 272.299 390.886 272.484 391.108 272.718C391.329 272.953 391.499 273.231 391.606 273.536C391.63 273.62 391.65 273.705 391.663 273.791L397.069 309.953Z" fill="#090814"/>
<path d="M416.047 391.813H238.85C235.708 391.809 232.696 390.559 230.475 388.338C228.253 386.116 227.004 383.104 227 379.963V282.65C227.004 279.508 228.253 276.496 230.475 274.275C232.696 272.053 235.708 270.803 238.85 270.8H260.575C263.523 270.798 266.366 271.896 268.545 273.881L292.105 290.705C293.641 292.109 295.647 292.886 297.728 292.885H417.147C418.718 292.885 420.273 293.196 421.722 293.802C423.171 294.408 424.485 295.296 425.588 296.415C426.691 297.533 427.56 298.859 428.146 300.317C428.731 301.774 429.021 303.333 428.999 304.904L427.898 380.132C427.841 383.242 426.569 386.205 424.354 388.388C422.139 390.571 419.157 391.801 416.047 391.813Z" fill="#F59E0B"/>
<path d="M309.268 257.802H309.288C312.548 257.624 315.618 256.213 317.876 253.854C320.134 251.496 321.411 248.367 321.448 245.102C321.484 241.837 320.278 238.681 318.073 236.273C315.868 233.864 312.83 232.385 309.575 232.134C309.534 232.131 309.494 232.136 309.456 232.149C309.418 232.162 309.383 232.183 309.354 232.21C309.324 232.237 309.3 232.27 309.284 232.307C309.267 232.343 309.259 232.383 309.258 232.423L308.977 257.509C308.977 257.547 308.984 257.586 308.998 257.622C309.013 257.657 309.034 257.69 309.061 257.718C309.088 257.745 309.12 257.767 309.156 257.783C309.191 257.798 309.23 257.806 309.268 257.806V257.802Z" fill="#F59E0B"/>
<path d="M299.182 236.278C299.282 236.279 299.377 236.32 299.448 236.391L308.083 245.223C308.118 245.258 308.145 245.3 308.164 245.346C308.182 245.392 308.192 245.441 308.191 245.491L308.057 257.494C308.056 257.545 308.045 257.596 308.024 257.643C308.003 257.69 307.973 257.732 307.934 257.767C307.896 257.803 307.852 257.83 307.803 257.848C307.753 257.865 307.701 257.872 307.649 257.869C305.248 257.69 302.944 256.845 300.996 255.428C299.049 254.012 297.535 252.08 296.625 249.851C295.715 247.621 295.445 245.182 295.845 242.808C296.245 240.433 297.299 238.217 298.89 236.409C298.924 236.37 298.966 236.338 299.013 236.316C299.061 236.294 299.112 236.282 299.164 236.28L299.182 236.278Z" fill="#E6E6E6"/>
<path d="M307.961 232.028C308.057 232.028 308.15 232.064 308.22 232.13C308.257 232.165 308.287 232.208 308.307 232.256C308.327 232.304 308.337 232.355 308.336 232.406L308.215 243.237C308.214 243.311 308.191 243.384 308.149 243.445C308.107 243.507 308.048 243.555 307.979 243.582C307.91 243.61 307.834 243.617 307.761 243.602C307.688 243.586 307.621 243.55 307.569 243.497L300.032 235.792C299.996 235.756 299.968 235.712 299.949 235.664C299.931 235.617 299.922 235.566 299.924 235.514C299.926 235.463 299.939 235.413 299.96 235.367C299.982 235.32 300.014 235.279 300.052 235.245C302.244 233.316 305.022 232.183 307.938 232.029L307.961 232.028Z" fill="#090814"/>
<path d="M328.003 344.206C321.108 344.206 315.492 338.244 315.492 330.916C315.492 323.588 321.104 317.626 328.003 317.626C334.902 317.626 340.514 323.588 340.514 330.916C340.514 338.244 334.902 344.206 328.003 344.206ZM328.003 320.984C322.956 320.984 318.851 325.439 318.851 330.915C318.851 336.392 322.957 340.847 328.003 340.847C333.05 340.847 337.156 336.391 337.156 330.915C337.156 325.44 333.05 320.984 328.003 320.984V320.984Z" fill="#D6D6E3"/>
<path d="M339.85 367.367H316.151C314.062 367.365 312.059 366.533 310.582 365.056C309.105 363.579 308.274 361.576 308.272 359.486V336.244C308.273 334.813 308.842 333.44 309.854 332.428C310.866 331.416 312.238 330.847 313.669 330.846H342.336C343.767 330.847 345.14 331.416 346.152 332.428C347.164 333.44 347.733 334.813 347.734 336.244V359.486C347.732 361.576 346.9 363.58 345.422 365.057C343.944 366.535 341.94 367.366 339.85 367.367Z" fill="#F2F2F2"/>
<path d="M332.62 344.07C332.62 343.249 332.402 342.443 331.987 341.734C331.573 341.026 330.977 340.44 330.261 340.039C329.545 339.637 328.735 339.434 327.914 339.449C327.094 339.465 326.292 339.699 325.592 340.127C324.892 340.556 324.318 341.163 323.931 341.887C323.544 342.611 323.356 343.424 323.388 344.245C323.42 345.065 323.669 345.862 324.111 346.553C324.554 347.245 325.172 347.806 325.903 348.179V355.404H330.104V348.179C330.861 347.793 331.497 347.204 331.941 346.479C332.385 345.754 332.62 344.92 332.62 344.07Z" fill="#F59E0B"/>
</svg>
