<svg width="936" height="893" viewBox="0 0 936 893" fill="none" xmlns="http://www.w3.org/2000/svg">
<path d="M139.022 414.995C135.603 405.174 130.083 396.216 122.847 388.748C115.611 381.279 106.833 375.479 97.1257 371.751C87.4178 368.024 77.0138 366.459 66.6391 367.165C56.2644 367.872 46.1687 370.834 37.056 375.843C27.9433 380.853 20.0329 387.79 13.8765 396.171C7.72018 404.552 3.46597 414.175 1.41058 424.369C-0.64482 434.563 -0.451925 445.083 1.9758 455.195C4.40353 465.307 9.00765 474.768 15.4671 482.918C16.1085 483.726 16.7759 484.535 17.4568 485.322C17.5077 485.373 17.5462 485.425 17.5981 485.476C19.2712 487.403 21.0494 489.237 22.9247 490.969C23.4132 491.418 23.9257 491.881 24.4392 492.315C25.4143 493.189 26.4154 494.022 27.4559 494.816C27.8666 495.137 28.2647 495.457 28.6878 495.766C30.3303 497.011 32.0372 498.17 33.796 499.269L33.873 499.308C34.373 499.616 34.8865 499.924 35.4001 500.22C36.3242 500.772 37.2743 501.298 38.2234 501.799L38.8273 502.106C40.2131 502.825 41.6257 503.506 43.0759 504.135C43.3711 504.263 43.6923 504.391 43.9875 504.519C44.0135 504.532 44.026 504.532 44.051 504.545C44.7318 504.828 45.4117 505.097 46.1041 505.354C48.3806 506.224 50.7025 506.969 53.0597 507.587C59.0759 509.191 65.2758 510.002 71.502 510C73.7734 510 76.0218 509.897 78.2403 509.679C83.3135 509.211 88.3218 508.199 93.1794 506.663C93.1919 506.663 93.2054 506.65 93.2179 506.65C96.2864 505.672 99.2839 504.483 102.189 503.092C102.202 503.08 102.228 503.08 102.24 503.066C102.894 502.758 103.524 502.425 104.163 502.104L104.471 501.951C104.985 501.681 105.498 501.411 106.01 501.129C107.293 500.423 108.55 499.679 109.796 498.883C110.142 498.677 110.476 498.46 110.823 498.228C111.31 497.907 111.798 497.573 112.273 497.227C112.902 496.79 113.531 496.341 114.147 495.88C114.339 495.739 114.545 495.598 114.738 495.444C126.762 486.317 135.588 473.617 139.95 459.165C144.313 444.713 143.988 429.251 139.022 414.995Z" fill="white"/>
<path d="M46.1335 455.378L50.3328 469.751L104 468.815L103.529 442.473C103.157 421.621 88.2463 403.637 67.1486 404.006C46.0509 404.374 32.636 422.001 33.0075 442.852L36.0729 470L44.8255 469.847L46.1335 455.378Z" fill="#D6D6E3"/>
<path d="M69 466C82.2548 466 93 455.255 93 442C93 428.745 82.2548 418 69 418C55.7452 418 45 428.745 45 442C45 455.255 55.7452 466 69 466Z" fill="white"/>
<path d="M117 479.358L116.464 489.055C105.101 500.562 89.6029 507.336 73.2217 507.954C56.8405 508.572 40.8505 502.986 28.6082 492.368C28.0613 491.903 27.5249 491.409 27 490.908C30.2824 487.733 39.3437 479.891 49.3994 479.165L94.744 476.384C94.744 476.384 111.919 474.424 117 479.358Z" fill="#D6D6E3"/>
<path d="M94.9879 425.124C94.9578 423.295 94.4059 421.516 93.4017 420.012C93.2957 419.857 93.1887 419.714 93.0826 419.57C92.2295 418.44 91.1359 417.53 89.8872 416.911C88.6386 416.292 87.2687 415.98 85.8848 416.001L69.3252 416.31L52.7851 416.612C50.4148 416.661 48.1598 417.681 46.5136 419.45C44.8674 421.219 43.964 423.592 44.0011 426.05L47.941 434.274L50.2091 439L50.5812 438.779C64.9006 430.434 70.757 430.324 89.7084 438.084L90.0917 438.238L91.5932 434.253L95 425.213L94.9879 425.124Z" fill="#D6D6E3"/>
<path d="M139.022 414.995C135.603 405.174 130.083 396.216 122.847 388.748C115.611 381.279 106.833 375.479 97.1257 371.751C87.4178 368.024 77.0138 366.459 66.6391 367.165C56.2644 367.872 46.1687 370.834 37.056 375.843C27.9433 380.853 20.0329 387.79 13.8765 396.171C7.72018 404.552 3.46597 414.175 1.41058 424.369C-0.64482 434.563 -0.451925 445.083 1.9758 455.195C4.40353 465.307 9.00765 474.768 15.4671 482.918C16.1085 483.726 16.7759 484.535 17.4568 485.322C17.5077 485.373 17.5462 485.425 17.5981 485.476C19.2712 487.403 21.0494 489.237 22.9247 490.969C23.4132 491.418 23.9257 491.881 24.4392 492.315C25.4143 493.189 26.4154 494.022 27.4559 494.816C27.8666 495.137 28.2647 495.457 28.6878 495.766C30.3303 497.011 32.0372 498.17 33.796 499.269L33.873 499.308C34.373 499.616 34.8865 499.924 35.4001 500.22C36.3242 500.772 37.2743 501.298 38.2234 501.799L38.8273 502.106C40.2131 502.825 41.6257 503.506 43.0759 504.135C43.3711 504.263 43.6923 504.391 43.9875 504.519C44.0135 504.532 44.026 504.532 44.051 504.545C44.7318 504.828 45.4117 505.097 46.1041 505.354C48.3806 506.224 50.7025 506.969 53.0597 507.587C59.0759 509.191 65.2758 510.002 71.502 510C73.7734 510 76.0218 509.897 78.2403 509.679C83.3135 509.211 88.3218 508.199 93.1794 506.663C93.1919 506.663 93.2054 506.65 93.2179 506.65C96.2864 505.672 99.2839 504.483 102.189 503.092C102.202 503.08 102.228 503.08 102.24 503.066C102.894 502.758 103.524 502.425 104.163 502.104L104.471 501.951C104.985 501.681 105.498 501.411 106.01 501.129C107.293 500.423 108.55 499.679 109.796 498.883C110.142 498.677 110.476 498.46 110.823 498.228C111.31 497.907 111.798 497.573 112.273 497.227C112.902 496.79 113.531 496.341 114.147 495.88C114.339 495.739 114.545 495.598 114.738 495.444C126.762 486.317 135.588 473.617 139.95 459.165C144.313 444.713 143.988 429.251 139.022 414.995ZM112.384 492.326C111.96 492.66 111.525 492.981 111.088 493.276C110.664 493.597 110.242 493.905 109.804 494.188C109.432 494.457 109.06 494.714 108.675 494.957L108.56 495.034C108.277 495.226 107.995 495.406 107.713 495.586C106.647 496.254 105.569 496.895 104.479 497.51L104.133 497.702C103.645 497.971 103.157 498.228 102.67 498.485C102.605 498.523 102.529 498.549 102.464 498.588L102.387 498.626C101.771 498.947 101.142 499.255 100.514 499.55C98.0871 500.719 95.5877 501.731 93.0313 502.58C92.6976 502.695 92.3639 502.81 92.0303 502.913C87.4326 504.376 82.6911 505.34 77.8874 505.789C75.7823 505.981 73.6561 506.084 71.5088 506.084C65.6196 506.096 59.7548 505.328 54.0675 503.799C51.1492 503.037 48.2891 502.068 45.5088 500.899C45.3675 500.834 45.2127 500.783 45.0723 500.719C44.9319 500.654 44.777 500.603 44.6357 500.539C44.4943 500.474 44.3404 500.411 44.1866 500.334C42.9807 499.808 41.7825 499.23 40.6189 498.627L40.0544 498.332C38.6292 497.587 37.231 496.793 35.8703 495.945C35.4722 495.701 35.0615 495.445 34.6769 495.175C34.575 495.111 34.4846 495.048 34.3817 494.983C33.47 494.38 32.5546 493.751 31.6737 493.096C31.0707 492.647 30.4678 492.198 29.8773 491.735C28.8888 490.991 27.9387 490.197 27.0155 489.374C26.5279 488.963 26.0538 488.514 25.5913 488.09C23.7715 486.409 22.049 484.627 20.4321 482.75C19.8936 482.134 19.3666 481.518 18.8656 480.876C18.7516 480.749 18.6444 480.616 18.5444 480.478C10.2054 469.955 5.18962 457.186 4.13662 443.801C3.08362 430.415 6.04118 417.019 12.6321 405.321C19.223 393.624 29.1485 384.154 41.1428 378.121C53.1371 372.087 66.6566 369.763 79.9771 371.445C93.2975 373.127 105.815 378.738 115.934 387.564C126.052 396.389 133.313 408.028 136.79 420.997C140.266 433.966 139.802 447.677 135.455 460.381C131.109 473.084 123.077 484.206 112.384 492.326Z" fill="#D6D6E3"/>
<path d="M162.715 520L110.974 518.826C105.799 498.743 108.129 479.621 112.259 462L164 463.174C158.767 481.7 158.325 501.255 162.716 520H162.715Z" fill="#F59E0B"/>
<path d="M121 475.018L121.029 473L148 473.982L147.967 476L121 475.018Z" fill="white"/>
<path d="M120 483.017L120.03 481L148 481.983L147.97 484L120 483.017Z" fill="white"/>
<path d="M120 491.018L120.029 489L147 489.982L146.971 492L120 491.018Z" fill="white"/>
<path d="M120 499.018L120.028 497L147 497.982L146.971 500L120 499.018Z" fill="white"/>
<path d="M120 506.69L120.028 504L147 505.311L146.971 508L120 506.69Z" fill="white"/>
<path d="M148.994 201.011C145.552 190.982 139.995 181.836 132.708 174.209C125.422 166.582 116.583 160.659 106.807 156.852C97.0305 153.046 86.553 151.447 76.105 152.169C65.6569 152.89 55.4898 155.914 46.3128 161.029C37.1358 166.144 29.1699 173.228 22.9705 181.785C16.7712 190.343 12.4877 200.169 10.4189 210.578C8.35006 220.987 8.54567 231.728 10.9921 242.053C13.4385 252.377 18.0768 262.036 24.5836 270.356C25.2299 271.177 25.9017 272.007 26.5873 272.806C26.6393 272.859 26.6775 272.911 26.7295 272.963C28.4138 274.932 30.2041 276.804 32.0921 278.572C32.5835 279.03 33.1003 279.503 33.6171 279.948C34.5988 280.839 35.607 281.692 36.6546 282.504C37.0673 282.831 37.4639 283.159 37.8952 283.474C39.5486 284.744 41.2679 285.924 43.0392 287.051L43.1167 287.091C43.6208 287.406 44.1376 287.721 44.6545 288.022C45.5795 288.586 46.5415 289.123 47.4977 289.634L48.1058 289.948C49.5014 290.682 50.9235 291.376 52.3839 292.019C52.681 292.15 53.0048 292.281 53.3019 292.411C53.3273 292.424 53.3401 292.424 53.3667 292.437C54.0523 292.726 54.7368 293.001 55.4351 293.258C57.7276 294.146 60.0659 294.907 62.4396 295.538C68.498 297.175 74.7412 298.002 81.0109 298C83.2979 298 85.5607 297.896 87.7957 297.673C92.9044 297.195 97.9478 296.162 102.839 294.593C102.852 294.593 102.865 294.58 102.877 294.58C105.967 293.581 108.986 292.366 111.911 290.946C111.924 290.933 111.949 290.933 111.963 290.92C112.622 290.606 113.256 290.265 113.902 289.938L114.212 289.781C114.729 289.505 115.247 289.231 115.762 288.942C117.055 288.221 118.321 287.462 119.578 286.649C119.925 286.44 120.264 286.217 120.612 285.981C121.103 285.654 121.593 285.313 122.072 284.959C122.704 284.513 123.344 284.055 123.959 283.582C124.153 283.438 124.36 283.294 124.553 283.137C136.657 273.818 145.541 260.853 149.932 246.1C154.322 231.347 153.994 215.563 148.994 201.011Z" fill="white"/>
<path d="M118.273 279.969C112.204 276.748 105.869 274.063 99.3392 271.944L98.5072 262.667L64.7384 259L60.4508 270.859L48.3319 275.439C47.8982 275.605 47.4854 275.821 47.1021 276.085H47.0896C45.7223 277.015 42.2759 279.459 42.0054 281.098C41.8759 281.906 44.1005 282.386 44.2896 283.176L45.2581 285.175C46.1749 285.73 47.1285 286.259 48.0763 286.762L48.6792 287.072C50.0625 287.794 51.4722 288.478 52.9198 289.11C53.2143 289.24 53.5341 289.369 53.8298 289.497C53.855 289.51 53.8676 289.51 53.894 289.523C54.5736 289.807 55.2521 290.078 55.9443 290.331C58.2167 291.205 60.5345 291.954 62.8874 292.576C68.8928 294.187 75.0813 295.002 81.2961 295C83.5631 295 85.8049 294.897 88.0215 294.678C93.0855 294.207 98.0847 293.19 102.933 291.645C102.946 291.645 102.959 291.633 102.971 291.633C106.034 290.648 109.026 289.453 111.926 288.054C111.938 288.041 111.964 288.041 111.977 288.029C112.631 287.719 113.259 287.383 113.899 287.061L114.207 286.907C114.719 286.635 115.232 286.365 115.745 286.081C117.026 285.371 118.281 284.623 119.527 283.823C119.871 283.617 120.206 283.397 120.552 283.165C121.04 282.843 121.526 282.507 122 282.159C120.797 281.4 119.554 280.665 118.273 279.969Z" fill="#D6D6E3"/>
<path d="M80 252C93.2548 252 104 241.031 104 227.5C104 213.969 93.2548 203 80 203C66.7452 203 56 213.969 56 227.5C56 241.031 66.7452 252 80 252Z" fill="white"/>
<path d="M79.9835 254C76.0199 253.995 72.1098 253.085 68.5518 251.339C64.9938 249.594 61.8819 247.059 59.4537 243.928C57.0255 240.797 55.3452 237.154 54.5411 233.275C53.7369 229.396 53.8302 225.385 54.8138 221.548C55.7973 217.711 57.6452 214.149 60.2163 211.135C62.7874 208.12 66.0137 205.732 69.649 204.154C73.2843 202.575 77.2325 201.848 81.1921 202.027C85.1516 202.205 89.018 203.286 92.496 205.186C97.5601 207.964 101.556 212.346 103.853 217.643C106.15 222.94 106.619 228.85 105.186 234.443C103.752 240.035 100.498 244.993 95.935 248.533C91.3722 252.074 85.7604 253.997 79.9835 254ZM80.0602 203.951C74.1985 203.941 68.5348 206.07 64.133 209.939C59.7313 213.807 56.8945 219.149 56.1556 224.96C55.4166 230.771 56.8264 236.652 60.12 241.498C63.4136 246.343 68.3644 249.821 74.0423 251.276C79.7202 252.731 85.7346 252.065 90.9554 249.401C96.1763 246.738 100.244 242.261 102.395 236.812C104.547 231.363 104.633 225.316 102.637 219.808C100.642 214.3 96.7033 209.71 91.5603 206.899C88.0336 204.972 84.0798 203.958 80.0602 203.951Z" fill="#D6D6E3"/>
<path d="M63.0312 215.726C65.6109 218.824 69.966 219.697 73.9869 220.055C83.3893 220.583 92.8187 219.801 102.012 217.731C102.582 223.34 101.028 229.388 104.28 234C105.805 228.415 106.691 222.67 106.922 216.878C107.163 214.393 106.843 211.885 105.984 209.545C105.526 208.372 104.753 207.353 103.753 206.605C102.753 205.856 101.567 205.407 100.328 205.309C102.182 203.88 104.354 202.937 106.651 202.563L98.7501 198.53L100.779 196.414L86.4728 195.524L90.6157 192.85C84.3803 191.979 78.0722 191.777 71.7953 192.246C68.8802 192.464 65.8325 192.881 63.4697 194.596C61.1069 196.312 59.7431 199.718 61.2089 202.24C59.3736 202.547 57.6457 203.324 56.1887 204.498C54.7318 205.673 53.5941 207.206 52.8834 208.952C51.9844 211.728 51.7675 214.685 52.2514 217.566C52.7901 222.187 53.8472 226.731 55.4021 231.109L63.0312 215.726Z" fill="#D6D6E3"/>
<path d="M148.994 201.011C145.552 190.982 139.995 181.836 132.708 174.209C125.422 166.582 116.583 160.659 106.807 156.852C97.0305 153.046 86.553 151.447 76.105 152.169C65.6569 152.89 55.4898 155.914 46.3128 161.029C37.1358 166.144 29.1699 173.228 22.9705 181.785C16.7712 190.343 12.4877 200.169 10.4189 210.578C8.35006 220.987 8.54567 231.728 10.9921 242.053C13.4385 252.377 18.0768 262.036 24.5836 270.356C25.2299 271.177 25.9017 272.007 26.5873 272.806C26.6393 272.859 26.6775 272.911 26.7295 272.963C28.4138 274.932 30.2041 276.804 32.0921 278.572C32.5835 279.03 33.1003 279.503 33.6171 279.948C34.5988 280.839 35.607 281.692 36.6546 282.504C37.0673 282.831 37.4639 283.159 37.8952 283.474C39.5486 284.744 41.2679 285.924 43.0392 287.051L43.1167 287.091C43.6208 287.406 44.1376 287.721 44.6545 288.022C45.5795 288.586 46.5415 289.123 47.4977 289.634L48.1058 289.948C49.5014 290.682 50.9235 291.376 52.3839 292.019C52.681 292.15 53.0048 292.281 53.3019 292.411C53.3273 292.424 53.3401 292.424 53.3667 292.437C54.0523 292.726 54.7368 293.001 55.4351 293.258C57.7276 294.146 60.0659 294.907 62.4396 295.538C68.498 297.175 74.7412 298.002 81.0109 298C83.2979 298 85.5607 297.896 87.7957 297.673C92.9044 297.195 97.9478 296.162 102.839 294.593C102.852 294.593 102.865 294.58 102.877 294.58C105.967 293.581 108.986 292.366 111.911 290.946C111.924 290.933 111.949 290.933 111.963 290.92C112.622 290.606 113.256 290.265 113.902 289.938L114.212 289.781C114.729 289.505 115.247 289.231 115.762 288.942C117.055 288.221 118.321 287.462 119.578 286.649C119.925 286.44 120.264 286.217 120.612 285.981C121.103 285.654 121.593 285.313 122.072 284.959C122.704 284.513 123.344 284.055 123.959 283.582C124.153 283.438 124.36 283.294 124.553 283.137C136.657 273.818 145.541 260.853 149.932 246.1C154.322 231.347 153.994 215.563 148.994 201.011ZM122.169 279.961C121.742 280.302 121.303 280.629 120.864 280.931C120.437 281.258 120.012 281.573 119.571 281.862C119.196 282.137 118.822 282.398 118.433 282.648L118.318 282.727C118.033 282.924 117.749 283.107 117.464 283.291C116.391 283.972 115.306 284.627 114.207 285.257L113.86 285.454C113.369 285.729 112.879 285.99 112.387 286.253C112.323 286.293 112.245 286.319 112.18 286.357L112.103 286.397C111.483 286.726 110.85 287.04 110.216 287.335C107.773 288.528 105.256 289.561 102.682 290.428C102.346 290.545 102.01 290.662 101.674 290.769C97.0437 292.261 92.2688 293.243 87.4314 293.7C85.3121 293.897 83.1661 294.001 81.0086 294.001C75.0783 294.013 69.1725 293.229 63.4455 291.668C60.5064 290.89 57.6259 289.901 54.8258 288.707C54.6836 288.641 54.5275 288.59 54.3865 288.524C54.2454 288.458 54.0893 288.407 53.9471 288.34C53.8049 288.273 53.65 288.209 53.495 288.13C52.2798 287.593 51.0785 287.003 49.9026 286.387L49.3337 286.085C47.8988 285.326 46.4906 284.513 45.1205 283.648C44.7192 283.4 44.3111 283.137 43.918 282.862C43.8151 282.796 43.7237 282.73 43.6208 282.665C42.7028 282.049 41.7859 281.407 40.8944 280.738C40.2874 280.28 39.6792 279.822 39.0849 279.349C38.0894 278.59 37.1332 277.777 36.2025 276.938C35.7111 276.518 35.2335 276.06 34.7676 275.627C32.9352 273.911 31.2008 272.091 29.5727 270.176C29.0304 269.546 28.4997 268.918 27.9956 268.262C27.8812 268.133 27.7736 267.997 27.673 267.857C19.2762 257.113 14.2256 244.077 13.1653 230.411C12.1051 216.746 15.0833 203.069 21.72 191.127C28.3567 179.184 38.3513 169.516 50.429 163.356C62.5067 157.196 76.1202 154.824 89.5333 156.54C102.946 158.257 115.551 163.986 125.74 172.996C135.929 182.006 143.241 193.888 146.742 207.129C150.244 220.369 149.777 234.367 145.4 247.337C141.024 260.307 132.937 271.661 122.17 279.952L122.169 279.961Z" fill="#D6D6E3"/>
<path d="M172.716 299L120.974 297.807C115.799 277.377 118.129 257.924 122.258 240L174 241.193C168.767 260.039 168.325 279.932 172.716 299Z" fill="#F59E0B"/>
<path d="M130 253.017L130.03 251L158 251.983L157.971 254L130 253.017Z" fill="white"/>
<path d="M130 260.344L130.03 259L158 259.656L157.97 261L130 260.344Z" fill="white"/>
<path d="M130 268.69L130.03 266L158 267.31L157.97 270L130 268.69Z" fill="white"/>
<path d="M130 276.69L130.029 274L158 275.31L157.97 278L130 276.69Z" fill="white"/>
<path d="M130 284.689L130.029 282L158 283.311L157.97 286L130 284.689Z" fill="white"/>
<path d="M354.994 59.3395C351.552 49.4483 345.995 40.427 338.708 32.9047C331.422 25.3825 322.583 19.5404 312.807 15.7859C303.03 12.0314 292.553 10.4549 282.105 11.1663C271.657 11.8778 261.49 14.8601 252.313 19.9052C243.136 24.9504 235.17 31.9368 228.971 40.3774C222.771 48.818 218.488 58.5093 216.419 68.7757C214.35 79.0421 214.546 89.6362 216.992 99.8192C219.439 110.002 224.077 119.529 230.584 127.735C231.23 128.544 231.902 129.363 232.587 130.151C232.639 130.204 232.677 130.254 232.729 130.306C234.414 132.248 236.204 134.094 238.092 135.838C238.583 136.29 239.1 136.756 239.617 137.196C240.599 138.074 241.607 138.915 242.655 139.716C243.067 140.039 243.464 140.363 243.895 140.672C245.549 141.926 247.268 143.089 249.039 144.201L249.117 144.241C249.621 144.551 250.138 144.862 250.654 145.159C251.579 145.715 252.541 146.245 253.498 146.749L254.106 147.059C255.501 147.782 256.924 148.467 258.384 149.101C258.681 149.23 259.005 149.36 259.302 149.488C259.327 149.501 259.34 149.501 259.367 149.513C260.052 149.798 260.737 150.07 261.435 150.323C263.728 151.199 266.066 151.949 268.44 152.572C274.498 154.186 280.741 155.002 287.011 155C289.298 155 291.561 154.897 293.796 154.677C298.904 154.206 303.948 153.188 308.839 151.64C308.852 151.64 308.865 151.627 308.877 151.627C311.967 150.641 314.986 149.444 317.911 148.043C317.924 148.03 317.949 148.03 317.963 148.017C318.622 147.707 319.256 147.371 319.902 147.048L320.212 146.893C320.729 146.622 321.247 146.351 321.762 146.067C323.055 145.355 324.321 144.606 325.578 143.805C325.925 143.598 326.264 143.378 326.612 143.146C327.103 142.823 327.593 142.487 328.072 142.137C328.704 141.698 329.344 141.246 329.959 140.78C330.153 140.638 330.36 140.496 330.553 140.341C342.657 131.149 351.541 118.362 355.932 103.811C360.322 89.2597 359.994 73.6923 354.994 59.3395Z" fill="white"/>
<path d="M324.273 137.387C318.204 134.255 311.869 131.644 305.339 129.584L304.507 120.566L270.738 117L266.451 128.529L254.332 132.983C253.898 133.144 253.485 133.354 253.102 133.61H253.09C251.722 134.515 248.276 136.89 248.005 138.484C247.876 139.27 250.1 139.737 250.29 140.504L251.258 142.448C252.175 142.988 253.129 143.502 254.076 143.991L254.679 144.292C256.063 144.995 257.472 145.659 258.92 146.274C259.214 146.4 259.534 146.525 259.83 146.65C259.855 146.662 259.868 146.662 259.894 146.675C260.574 146.951 261.252 147.214 261.944 147.46C264.217 148.31 266.535 149.039 268.887 149.643C274.893 151.21 281.081 152.002 287.296 152C289.563 152 291.805 151.9 294.021 151.687C299.085 151.229 304.085 150.241 308.933 148.739C308.946 148.739 308.959 148.726 308.971 148.726C312.034 147.769 315.026 146.607 317.926 145.247C317.938 145.235 317.964 145.235 317.977 145.222C318.631 144.922 319.259 144.595 319.899 144.282L320.207 144.132C320.719 143.868 321.232 143.605 321.745 143.329C323.026 142.639 324.281 141.912 325.527 141.134C325.871 140.933 326.206 140.72 326.552 140.494C327.04 140.181 327.526 139.854 328 139.516C326.797 138.778 325.554 138.063 324.273 137.387Z" fill="#D6D6E3"/>
<path d="M286 110C299.807 110 311 99.031 311 85.5C311 71.969 299.807 61 286 61C272.193 61 261 71.969 261 85.5C261 99.031 272.193 110 286 110Z" fill="white"/>
<path d="M286.484 111C282.596 110.995 278.762 110.102 275.272 108.39C271.782 106.678 268.73 104.192 266.349 101.122C263.967 98.0513 262.319 94.4776 261.531 90.6735C260.742 86.8695 260.833 82.9356 261.798 79.1722C262.763 75.4089 264.575 71.9156 267.097 68.9589C269.618 66.0023 272.783 63.6605 276.348 62.1123C279.913 60.5642 283.786 59.8506 287.669 60.026C291.553 60.2015 295.345 61.2613 298.756 63.1246C303.722 65.8492 307.641 70.1475 309.894 75.3425C312.148 80.5376 312.607 86.3341 311.202 91.8191C309.796 97.304 306.604 102.166 302.129 105.638C297.654 109.111 292.15 110.997 286.484 111ZM286.559 61.9139C280.81 61.904 275.255 63.9921 270.938 67.7862C266.621 71.5803 263.839 76.8191 263.114 82.5185C262.389 88.2179 263.772 93.9856 267.002 98.7382C270.233 103.491 275.088 106.901 280.657 108.328C286.226 109.756 292.124 109.102 297.245 106.49C302.365 103.878 306.355 99.4872 308.465 94.1428C310.575 88.7984 310.659 82.8681 308.702 77.4659C306.745 72.0637 302.882 67.5615 297.838 64.8049C294.379 62.9146 290.501 61.9207 286.559 61.9139Z" fill="#D6D6E3"/>
<path d="M354.994 59.3395C351.552 49.4483 345.995 40.427 338.708 32.9047C331.422 25.3825 322.583 19.5404 312.807 15.7859C303.03 12.0314 292.553 10.4549 282.105 11.1663C271.657 11.8778 261.49 14.8601 252.313 19.9052C243.136 24.9504 235.17 31.9368 228.971 40.3774C222.771 48.818 218.488 58.5093 216.419 68.7757C214.35 79.0421 214.546 89.6362 216.992 99.8192C219.439 110.002 224.077 119.529 230.584 127.735C231.23 128.544 231.902 129.363 232.587 130.151C232.639 130.204 232.677 130.254 232.729 130.306C234.414 132.248 236.204 134.094 238.092 135.838C238.583 136.29 239.1 136.756 239.617 137.196C240.599 138.074 241.607 138.915 242.655 139.716C243.067 140.039 243.464 140.363 243.895 140.672C245.549 141.926 247.268 143.089 249.039 144.201L249.117 144.241C249.621 144.551 250.138 144.862 250.654 145.159C251.579 145.715 252.541 146.245 253.498 146.749L254.106 147.059C255.501 147.782 256.924 148.467 258.384 149.101C258.681 149.23 259.005 149.36 259.302 149.488C259.327 149.501 259.34 149.501 259.367 149.513C260.052 149.798 260.737 150.07 261.435 150.323C263.728 151.199 266.066 151.949 268.44 152.572C274.498 154.186 280.741 155.002 287.011 155C289.298 155 291.561 154.897 293.796 154.677C298.904 154.206 303.948 153.188 308.839 151.64C308.852 151.64 308.865 151.627 308.877 151.627C311.967 150.641 314.986 149.444 317.911 148.043C317.924 148.03 317.949 148.03 317.963 148.017C318.622 147.707 319.256 147.371 319.902 147.048L320.212 146.893C320.729 146.622 321.247 146.351 321.762 146.067C323.055 145.355 324.321 144.606 325.578 143.805C325.925 143.598 326.264 143.378 326.612 143.146C327.103 142.823 327.593 142.487 328.072 142.137C328.704 141.698 329.344 141.246 329.959 140.78C330.153 140.638 330.36 140.496 330.553 140.341C342.657 131.149 351.541 118.362 355.932 103.811C360.322 89.2597 359.994 73.6923 354.994 59.3395ZM328.169 137.208C327.742 137.545 327.303 137.867 326.864 138.165C326.437 138.487 326.012 138.798 325.571 139.083C325.196 139.354 324.822 139.612 324.433 139.858L324.318 139.936C324.033 140.13 323.749 140.311 323.464 140.492C322.391 141.164 321.306 141.811 320.207 142.431L319.86 142.625C319.369 142.897 318.879 143.155 318.387 143.414C318.323 143.453 318.245 143.479 318.18 143.517L318.103 143.556C317.483 143.88 316.85 144.19 316.216 144.481C313.773 145.658 311.256 146.677 308.682 147.532C308.346 147.647 308.01 147.763 307.674 147.868C303.044 149.339 298.269 150.308 293.431 150.759C291.312 150.953 289.166 151.056 287.009 151.056C281.078 151.068 275.173 150.294 269.446 148.755C266.506 147.988 263.626 147.012 260.826 145.834C260.684 145.769 260.528 145.718 260.386 145.654C260.245 145.589 260.089 145.538 259.947 145.472C259.805 145.406 259.65 145.343 259.495 145.265C258.28 144.736 257.078 144.154 255.903 143.546L255.334 143.249C253.899 142.499 252.491 141.698 251.12 140.845C250.719 140.6 250.311 140.341 249.918 140.069C249.815 140.004 249.724 139.939 249.621 139.875C248.703 139.268 247.786 138.634 246.894 137.975C246.287 137.523 245.679 137.071 245.085 136.605C244.089 135.855 243.133 135.054 242.202 134.226C241.711 133.812 241.234 133.36 240.768 132.933C238.935 131.241 237.201 129.446 235.573 127.557C235.03 126.936 234.5 126.316 233.996 125.67C233.881 125.542 233.774 125.408 233.673 125.27C225.276 114.673 220.226 101.816 219.165 88.3373C218.105 74.8587 221.083 61.3697 227.72 49.5906C234.357 37.8115 244.351 28.2763 256.429 22.2008C268.507 16.1253 282.12 13.7849 295.533 15.4782C308.946 17.1715 321.551 22.8216 331.74 31.7081C341.929 40.5946 349.241 52.3146 352.742 65.3736C356.244 78.4325 355.777 92.2384 351.4 105.031C347.024 117.823 338.937 129.022 328.17 137.199L328.169 137.208Z" fill="#D6D6E3"/>
<path d="M378.693 156L326.027 154.827C320.759 134.743 323.131 115.621 327.334 98L380 99.173C374.673 117.699 374.223 137.255 378.693 156Z" fill="#F59E0B"/>
<path d="M337 110.345L337.029 109L364 109.655L363.972 111L337 110.345Z" fill="white"/>
<path d="M336 118.344L336.03 117L364 117.656L363.97 119L336 118.344Z" fill="white"/>
<path d="M336 126.69L336.03 124L364 125.31L363.97 128L336 126.69Z" fill="white"/>
<path d="M336 134.017L336.029 132L364 132.983L363.97 135L336 134.017Z" fill="white"/>
<path d="M336 142.017L336.029 140L364 140.983L363.97 143L336 142.017Z" fill="white"/>
<path d="M605.911 49.6737C602.397 39.5092 596.723 30.2387 589.285 22.5087C581.846 14.7788 572.823 8.77554 562.843 4.91755C552.864 1.05956 542.169 -0.560272 531.504 0.171025C520.838 0.902322 510.46 3.96714 501.092 9.15175C491.724 14.3364 483.593 21.5159 477.264 30.1898C470.935 38.8637 466.562 48.8232 464.45 59.3735C462.337 69.9239 462.536 80.8113 465.032 91.2765C467.528 101.742 472.261 111.533 478.902 119.967C479.562 120.804 480.248 121.641 480.947 122.45C481 122.503 481.039 122.557 481.092 122.612C482.812 124.607 484.64 126.505 486.568 128.297C487.069 128.761 487.596 129.24 488.124 129.691C489.127 130.595 490.156 131.458 491.225 132.282C493.312 133.937 495.487 135.476 497.742 136.891L497.823 136.93C499.287 137.846 500.777 138.697 502.295 139.507L502.915 139.826C504.34 140.571 505.791 141.274 507.282 141.927C507.585 142.06 507.915 142.193 508.218 142.325C508.245 142.338 508.258 142.338 508.285 142.352C511.297 143.614 514.391 144.667 517.546 145.503C523.731 147.162 530.104 148.002 536.504 148C538.839 148 541.148 147.894 543.431 147.668C548.645 147.181 553.792 146.133 558.784 144.541C558.798 144.541 558.811 144.528 558.824 144.528C561.978 143.516 565.06 142.287 568.046 140.848C568.059 140.836 568.086 140.836 568.099 140.822C568.772 140.503 569.418 140.158 570.078 139.826L570.395 139.664C570.923 139.385 571.45 139.106 571.977 138.814C573.297 138.087 574.589 137.313 575.87 136.49C576.226 136.277 576.569 136.051 576.925 135.812C578.086 135.041 579.234 134.218 580.342 133.381C580.54 133.235 580.751 133.089 580.949 132.929C593.309 123.484 602.381 110.341 606.865 95.3843C611.349 80.428 611.015 64.4271 605.911 49.6737Z" fill="white"/>
<path d="M540 93C551.598 93 561 83.8218 561 72.5C561 61.1782 551.598 52 540 52C528.402 52 519 61.1782 519 72.5C519 83.8218 528.402 93 540 93Z" fill="white"/>
<path d="M578 126.714V133.656C576.713 134.468 575.421 135.228 574.099 135.948C573.57 136.236 573.042 136.511 572.512 136.786L572.195 136.945C571.534 137.273 570.885 137.614 570.211 137.927C570.198 137.94 570.171 137.94 570.158 137.954C567.165 139.372 564.076 140.584 560.915 141.582C560.902 141.582 560.889 141.594 560.875 141.594C555.87 143.163 550.71 144.195 545.483 144.673C543.195 144.896 540.881 145 538.54 145C532.125 145.002 525.737 144.174 519.539 142.538C516.376 141.713 513.275 140.675 510.256 139.431C510.229 139.418 510.215 139.418 510.189 139.404C509.885 139.274 509.554 139.142 509.25 139.012C507.756 138.37 506.302 137.676 504.873 136.94L504.252 136.626C502.732 135.829 501.237 134.989 499.769 134.084L499.689 134.045C497.429 132.65 495.248 131.133 493.157 129.5C492.085 128.689 491.054 127.837 490.049 126.946C489.52 126.501 488.991 126.03 488.488 125.571C486.556 123.804 484.724 121.933 483 119.965C483.229 118.601 483.565 117.257 484.005 115.945L484.018 115.932C484.097 115.708 484.19 115.49 484.296 115.277C484.369 115.089 484.452 114.906 484.547 114.728C486.914 110.34 491.198 109.253 496.514 109.017C499.516 108.887 502.835 109.03 506.34 108.991C508.189 108.978 510.108 108.911 512.025 108.742C524.125 107.655 521.93 100.582 522.471 96.7712C523.013 93.0779 526.373 96.2733 526.597 96.4828L526.61 96.4955C533.457 99.6694 541.033 100.985 548.561 100.307C549.857 100.147 551.153 100.058 552.449 100.018C555.861 99.9792 555.12 100.948 553.944 101.747C553.373 102.119 552.776 102.452 552.158 102.743C552.158 102.743 551.616 106.017 551.06 110.916C550.531 115.605 567.206 117.229 570.473 118.25H570.486C572.35 118.929 574.014 120.059 575.325 121.537C576.637 123.014 577.555 124.793 577.997 126.711L578 126.714Z" fill="#D6D6E3"/>
<path d="M605.911 49.6737C602.397 39.5092 596.723 30.2387 589.285 22.5087C581.846 14.7788 572.823 8.77554 562.843 4.91755C552.864 1.05956 542.169 -0.560272 531.504 0.171025C520.838 0.902322 510.46 3.96714 501.092 9.15175C491.724 14.3364 483.593 21.5159 477.264 30.1898C470.935 38.8637 466.562 48.8232 464.45 59.3735C462.337 69.9239 462.536 80.8113 465.032 91.2765C467.528 101.742 472.261 111.533 478.902 119.967C479.562 120.804 480.248 121.641 480.947 122.45C481 122.503 481.039 122.557 481.092 122.612C482.812 124.607 484.64 126.505 486.568 128.297C487.069 128.761 487.596 129.24 488.124 129.691C489.127 130.595 490.156 131.458 491.225 132.282C493.312 133.937 495.487 135.476 497.742 136.891L497.823 136.93C499.287 137.846 500.777 138.697 502.295 139.507L502.915 139.826C504.34 140.571 505.791 141.274 507.282 141.927C507.585 142.06 507.915 142.193 508.218 142.325C508.245 142.338 508.258 142.338 508.285 142.352C511.297 143.614 514.391 144.667 517.546 145.503C523.731 147.162 530.104 148.002 536.504 148C538.839 148 541.148 147.894 543.431 147.668C548.645 147.181 553.792 146.133 558.784 144.541C558.798 144.541 558.811 144.528 558.824 144.528C561.978 143.516 565.06 142.287 568.046 140.848C568.059 140.836 568.086 140.836 568.099 140.822C568.772 140.503 569.418 140.158 570.078 139.826L570.395 139.664C570.923 139.385 571.45 139.106 571.977 138.814C573.297 138.087 574.589 137.313 575.87 136.49C576.226 136.277 576.569 136.051 576.925 135.812C578.086 135.041 579.234 134.218 580.342 133.381C580.54 133.235 580.751 133.089 580.949 132.929C593.309 123.484 602.381 110.341 606.865 95.3843C611.349 80.428 611.015 64.4271 605.911 49.6737ZM578.524 129.703C578.089 130.048 577.642 130.381 577.192 130.687C576.757 131.019 576.322 131.338 575.873 131.63C575.49 131.908 575.108 132.174 574.712 132.427C574.382 132.652 574.052 132.866 573.723 133.078C572.628 133.769 571.52 134.433 570.399 135.07L570.042 135.27C569.54 135.549 569.04 135.814 568.538 136.078C568.471 136.117 568.393 136.144 568.327 136.184L568.247 136.224C567.614 136.556 566.968 136.875 566.321 137.181C563.826 138.39 561.257 139.437 558.63 140.315C558.287 140.435 557.944 140.558 557.601 140.66C552.875 142.174 548 143.171 543.062 143.636C540.896 143.835 538.708 143.941 536.505 143.941C530.451 143.953 524.422 143.158 518.576 141.576C515.576 140.788 512.635 139.784 509.776 138.574C509.473 138.455 509.17 138.322 508.879 138.203C508.719 138.136 508.576 138.07 508.417 137.99C507.177 137.446 505.95 136.848 504.75 136.223L504.17 135.918C502.705 135.147 501.267 134.324 499.869 133.447C499.354 133.128 498.84 132.796 498.339 132.451C496.755 131.401 495.209 130.27 493.708 129.09C492.692 128.32 491.716 127.496 490.766 126.646C490.264 126.221 489.777 125.758 489.302 125.318C487.431 123.579 485.661 121.734 483.998 119.793C483.445 119.156 482.903 118.518 482.389 117.854C482.272 117.723 482.161 117.585 482.059 117.442C473.487 106.552 468.331 93.3372 467.248 79.4845C466.166 65.6318 469.206 51.7683 475.982 39.6623C482.757 27.5563 492.96 17.7564 505.29 11.5124C517.619 5.26833 531.517 2.86317 545.21 4.60364C558.902 6.3441 571.77 12.1513 582.172 21.2847C592.573 30.418 600.037 42.4635 603.611 55.885C607.185 69.3065 606.708 83.4957 602.24 96.6429C597.772 109.79 589.516 121.3 578.524 129.703Z" fill="#D6D6E3"/>
<path d="M626.716 166L574.974 164.827C569.799 144.744 572.129 125.623 576.258 108L628 109.174C622.766 127.7 622.324 147.255 626.716 166Z" fill="#F59E0B"/>
<path d="M585 120.345L585.029 119L612 119.655L611.972 121L585 120.345Z" fill="white"/>
<path d="M584 128.343L584.03 127L612 127.657L611.97 129L584 128.343Z" fill="white"/>
<path d="M584 136.345L584.029 135L611 135.655L610.971 137L584 136.345Z" fill="white"/>
<path d="M584 144.345L584.028 143L611 143.655L610.971 145L584 144.345Z" fill="white"/>
<path d="M584 152.016L584.028 150L611 150.986L610.971 153L584 152.016Z" fill="white"/>
<path d="M557.497 90.811C555.191 86.4518 557.254 80.8507 555.314 76.3138C553.606 72.3212 549.311 70.2108 545.539 68.0222C542.817 66.448 540.017 64.3278 538.661 61.6422C535.063 60.5269 531.242 60.3586 527.561 61.1533C524.117 61.9249 520.776 63.6344 518.667 66.4496C516.559 69.2648 515.91 73.2819 517.616 76.3602C516.52 75.8042 515.566 75.0005 514.829 74.0117C514.092 73.0229 513.592 71.8758 513.367 70.66C513.142 69.4441 513.199 68.1924 513.533 67.0024C513.868 65.8124 514.47 64.7164 515.294 63.7998C514.034 61.9603 513.264 59.8255 513.057 57.5999C512.85 55.3742 513.213 53.1323 514.112 51.0887C515.944 47.026 527.702 43.8197 532.141 43.2949L531.641 42.8509C531.641 42.8509 529.324 37.8226 529.339 36.5654C529.369 33.8977 529.42 31.1314 530.588 28.7342C532.356 25.1131 536.368 23.0304 540.346 22.3158C545.458 21.3886 551.147 22.4609 554.854 26.0925C558.562 29.7242 559.569 36.1319 556.347 40.1889C564.403 44.9841 568.878 51.7821 571.45 60.7573C574.022 69.7325 566.973 81.0463 562.678 89.3484C562.617 89.3342 562.556 89.3165 562.496 89.2955C564.02 91.4142 566.086 93.0758 568.474 94.1029C567.354 94.701 566.104 95.009 564.836 94.9992C563.354 95.0199 561.893 94.643 560.603 93.907C559.314 93.171 558.241 92.1025 557.497 90.811Z" fill="#D6D6E3"/>
<path d="M611.464 845.773C609.272 840.786 607.193 835.05 609.386 830.064C610.817 827.127 613.275 824.816 616.295 823.57C619.284 822.351 622.433 821.574 625.646 821.263C635.728 819.941 645.931 819.801 656.046 820.848C656.785 826.687 655.225 832.61 653.885 838.248C652.669 843.443 651.973 844.212 646.612 844.48C643.142 844.672 612.286 847.612 611.464 845.773Z" fill="#9F616A"/>
<path d="M703.987 812.13C786.044 812.13 852.564 793.523 852.564 770.57C852.564 747.617 786.044 729.01 703.987 729.01C621.93 729.01 555.41 747.617 555.41 770.57C555.41 793.523 621.93 812.13 703.987 812.13Z" fill="#090814"/>
<path d="M667.041 573.876C658.148 570.656 650.761 564.067 645.222 556.39C639.683 548.713 635.866 539.941 632.558 531.099C630.813 526.499 629.15 521.594 629.971 516.735C635.322 515.519 641.18 513.735 643.945 508.983C645.66 506.023 645.783 502.637 645.2 499.221C636.007 493.819 628.757 485.649 624.486 475.878C620.215 466.108 619.143 455.237 621.422 444.821C623.701 434.404 629.215 424.975 637.176 417.881C645.136 410.786 655.136 406.39 665.745 405.321C676.354 404.252 687.03 406.564 696.246 411.927C705.462 417.289 712.747 425.429 717.059 435.181C721.371 444.933 722.49 455.799 720.255 466.225C718.02 476.651 712.546 486.104 704.616 493.232C705.843 495.86 707.548 498.238 709.642 500.245C712.642 503.06 716.468 504.826 720.205 506.539L729.411 510.76C731.05 511.371 732.536 512.332 733.766 513.576C734.97 515.231 735.69 517.188 735.845 519.229C737.493 530.161 735.669 541.335 730.628 551.175C725.537 561.017 717.079 568.702 706.796 572.83C700.741 575.035 694.369 576.248 687.927 576.421C686.652 576.478 685.375 576.508 684.094 576.51C678.3 576.631 672.529 575.74 667.041 573.876Z" fill="#9F616A"/>
<path d="M813.238 606.71L809.311 582.917C807.326 570.981 805.28 558.817 799.731 548.059C796.084 541.015 744.997 513.232 740.114 510.177C735.231 507.122 729.153 504.982 723.75 506.935C722.878 516.235 721.95 525.735 718.004 534.209C715.435 539.722 711.666 544.591 706.972 548.46C702.279 552.329 696.781 555.1 690.879 556.57C684.977 558.04 678.821 558.173 672.861 556.958C666.901 555.744 661.288 553.212 656.433 549.549C647.176 542.577 641.243 531.823 638.476 520.572C637.801 517.826 637.032 514.681 634.507 513.424C631.774 512.051 628.486 513.714 626.195 515.731C621.987 519.461 618.641 524.801 613.176 526.058C611.202 526.515 573.746 543.69 571.627 546.672C569.508 549.654 568.51 553.343 567.47 556.918C578.826 582.207 589.216 607.527 600.57 632.818C601.102 633.771 601.384 634.843 601.391 635.935C601.163 637.068 600.68 638.134 599.978 639.052C594.409 647.998 594.586 659.252 595.198 669.765C595.81 680.278 596.56 691.386 591.863 700.811C590.585 703.398 583.835 732.957 585.493 739.254H820.311C815.833 726.942 817.537 702.235 818.472 689.164C819.127 680.021 817.433 670.89 816.706 661.745C815.182 643.064 816.324 625.349 813.238 606.71Z" fill="#E6E6E6"/>
<path d="M825.259 731.971C828.718 730.652 832.532 731.126 836.244 731.628C848.18 733.259 860.297 734.928 871.362 739.701C876.557 741.919 881.502 744.896 885.015 749.27C888.132 753.208 889.95 758.029 891.67 762.777L895.66 773.677C897.177 777.833 898.715 782.077 899.146 786.488C900.392 799.569 891.446 811.902 880.195 818.697C868.944 825.492 855.695 827.913 842.795 830.448C829.895 832.983 816.935 835.789 804.082 838.76C798.087 840.316 792.005 841.512 785.868 842.344C772.112 843.902 757.732 841.605 744.662 846.157C739.467 847.975 734.362 850.677 728.973 851.934C725.396 852.718 721.778 853.301 718.136 853.679L693.397 856.505C688.366 857.177 683.302 857.565 678.228 857.667C667.422 857.667 656.794 855.111 646.299 852.556C645.183 852.36 644.121 851.932 643.182 851.299C641.52 849.99 641.156 847.673 640.917 845.574C639.86 836.285 638.932 826.985 638.133 817.674C637.884 814.651 637.697 811.374 639.349 808.832C641.427 805.715 645.476 804.739 649.178 804.132C664.862 801.566 680.751 800.463 696.64 800.838C702.677 794.801 712.63 794.771 720.54 791.487C723.449 790.151 726.264 788.62 728.966 786.905C743.103 778.656 758.902 773.662 775.212 772.286C778.407 772.188 781.582 771.735 784.677 770.935C790.797 769.035 796.377 763.858 802.661 765.125C803.441 762.974 803.98 760.096 805.778 758.625C806.672 757.867 807.778 757.357 808.594 756.547C810.33 754.792 810.485 752.027 810.225 749.575C809.965 747.123 809.38 744.61 810.014 742.219C810.278 741.314 810.666 740.45 811.168 739.652C814.288 734.194 818.999 731.452 825.259 731.971Z" fill="#090814"/>
<path d="M621.024 852.194C614.592 859.644 608.93 862.304 598.862 862.064C592.669 861.918 586.484 861.596 580.306 861.098C576.084 860.641 571.839 860.442 567.593 860.503C554.772 861.003 542.393 866.872 529.607 865.844C527.716 865.695 525.846 865.347 524.028 864.805C521.143 864.001 518.536 862.415 516.496 860.223C514.044 857.449 512.87 853.771 512.196 850.134C508.778 831.495 518.149 811.192 534.556 801.706C536.697 800.324 539.13 799.459 541.663 799.181C544.147 799.172 546.602 799.713 548.853 800.765L549.009 800.827C555.674 803.57 561.727 807.611 566.817 812.714C567.589 813.598 568.51 814.34 569.539 814.906C570.566 815.293 571.652 815.496 572.749 815.506L586.402 816.368C588.715 816.439 591.014 816.758 593.259 817.319C595.734 818.183 598.144 819.225 600.469 820.436C607.814 823.719 615.961 824.592 623.899 825.859C624.664 825.901 625.394 826.193 625.977 826.69C626.294 827.084 626.514 827.547 626.621 828.041C627.73 832.218 627.8 836.603 626.826 840.814C625.851 845.024 623.862 848.932 621.031 852.198L621.024 852.194Z" fill="#323144"/>
<path d="M813.373 826.665C821.01 826.454 829.581 826.072 835.192 831.216C840.543 836.075 841.249 844.103 841.603 851.316L842.009 859.701C842.134 862.257 842.237 864.896 841.209 867.265C839.38 871.422 834.362 873.426 829.78 873.188C825.198 872.95 820.991 870.943 816.803 869.136C805.435 864.239 793.599 860.51 781.477 858.008C781.872 852.208 782.53 846.438 783.451 840.698C784.085 836.719 784.191 830.059 786.851 826.755C789.667 823.269 793.335 825.155 797.157 825.804C802.522 826.622 807.954 826.911 813.375 826.666L813.373 826.665Z" fill="#9F616A"/>
<path d="M611.579 742.423C611.579 743.462 609.948 742.423 609.802 741.312C608.659 732.906 601.985 725.977 594.217 722.612C586.449 719.247 577.593 719.069 569.177 719.866C556.45 721.071 542.215 725.944 537.508 737.841C536.408 740.625 535.908 743.641 534.557 746.309C533.057 749.239 530.619 751.577 528.999 754.424C526.204 759.348 526.09 765.385 527.099 770.954C529.81 785.812 539.972 798.523 552.284 807.319C564.596 816.115 578.984 821.376 593.335 826.119C631.275 838.632 670.202 847.93 709.702 853.913C716.102 854.879 722.564 855.773 728.695 857.83C734.181 859.669 739.314 862.423 744.675 864.584C757.139 869.592 770.554 871.384 783.845 873.14C786.11 873.431 788.704 873.64 790.38 872.101C792.541 870.094 791.824 866.608 791.211 863.727C788.955 852.793 790.84 841.412 796.5 831.789C798.718 828.049 801.611 824.214 801.2 819.882C800.7 814.833 795.672 811.258 790.664 810.448C785.656 809.638 780.564 810.833 775.536 811.487C773.795 811.88 771.973 811.702 770.341 810.978C769.593 810.473 768.916 809.873 768.325 809.191C764.861 805.849 760.427 803.69 755.66 803.023C750.893 802.357 746.037 803.217 741.789 805.481C739.929 806.52 737.114 804.203 735.181 803.33L713.352 793.43C688.252 782.074 663.023 770.666 636.466 763.476C634.347 763.06 632.333 762.222 630.543 761.014C629.224 759.975 628.278 758.562 627.057 757.409C624.408 754.909 620.719 753.909 617.54 752.128C614.361 750.347 610.831 745.987 611.579 742.423Z" fill="#090814"/>
<path d="M933.244 879.757C929.758 886.23 922.979 890.257 915.71 891.924C913.885 892.336 912.029 892.6 910.161 892.714C900.961 893.285 891.887 890.74 883.022 888.226L870.991 884.818C868.923 884.167 866.802 883.694 864.653 883.405C861.728 883.209 858.791 883.31 855.886 883.705C841.666 885.028 826.937 877.714 812.895 875.123C811.72 874.996 811.16 861.855 812.895 858.395C814.63 854.935 815.783 823.595 819.389 824.077C822.995 824.559 826.526 825.577 830.153 825.854C840.813 826.706 851.712 821.206 861.948 824.305C864.202 824.99 866.333 826.082 868.619 826.684C873.075 827.681 877.73 827.278 881.949 825.531C883.449 824.97 884.907 824.294 886.364 823.631C889.169 822.171 892.156 821.091 895.247 820.421C905.232 818.707 914.49 825.616 922.022 832.357C924.608 834.503 926.897 836.984 928.828 839.734C930.765 843.073 932.167 846.695 932.985 850.467C935.722 860.099 937.997 870.926 933.244 879.757Z" fill="#323144"/>
<path d="M603.365 705.727C601.932 710.692 539.412 648.443 544.433 639.827C545.161 638.549 545.9 637.282 546.651 636.027C548.794 632.393 551.201 628.92 553.851 625.637C560.083 618.125 568.095 612.348 576.023 606.654C576.628 606.155 577.339 605.8 578.101 605.615H578.226C579.12 605.583 595.483 625.215 596.27 625.637C607.263 630.385 609.132 685.879 603.365 705.727Z" fill="#9F616A"/>
<path d="M566.84 557.68C565.828 558.74 565.042 559.995 564.533 561.369C556.134 580.297 551.173 600.569 549.883 621.236C549.906 622.244 549.674 623.242 549.208 624.136C548.749 624.731 548.238 625.284 547.682 625.789C547.176 626.389 546.799 627.086 546.573 627.837C546.347 628.588 546.278 629.378 546.37 630.157C546.461 630.936 546.712 631.688 547.106 632.366C547.499 633.044 548.028 633.635 548.659 634.101C550.373 630.87 554.477 629.821 558.125 629.54C575.591 628.158 592.651 636.283 610.168 635.667C608.932 631.396 607.155 627.293 606.147 622.967C601.689 603.777 612.802 582.883 605.991 564.398C604.629 560.698 602.354 557.063 598.77 555.442C597.286 554.843 595.733 554.431 594.147 554.216C589.721 553.416 580.91 549.998 576.629 551.364C575.045 551.873 574.429 553.364 573.117 554.252C571.172 555.54 568.533 555.984 566.84 557.68Z" fill="#E6E6E6"/>
<path d="M827.45 595.499H611.694C607.292 595.499 603.724 599.067 603.724 603.469V735.066C603.724 739.468 607.292 743.036 611.694 743.036H827.45C831.852 743.036 835.42 739.468 835.42 735.066V603.469C835.42 599.067 831.852 595.499 827.45 595.499Z" fill="#3F3D56"/>
<path opacity="0.2" d="M827.45 595.499H611.694C607.292 595.499 603.724 599.067 603.724 603.469V735.066C603.724 739.468 607.292 743.036 611.694 743.036H827.45C831.852 743.036 835.42 739.468 835.42 735.066V603.469C835.42 599.067 831.852 595.499 827.45 595.499Z" fill="black"/>
<path d="M719.052 675.503C722.495 675.503 725.286 672.712 725.286 669.269C725.286 665.826 722.495 663.035 719.052 663.035C715.609 663.035 712.818 665.826 712.818 669.269C712.818 672.712 715.609 675.503 719.052 675.503Z" fill="white"/>
<path d="M693.844 478.32C690.367 476.482 686.329 476.103 682.566 474.96C669.103 470.872 660.084 455.653 662.966 441.881C663.498 440.115 663.737 438.273 663.673 436.429C663.173 432.35 658.996 429.718 654.994 428.784C650.992 427.85 646.734 427.984 642.908 426.484C637.002 424.164 633.079 418.094 632.228 411.805C631.615 405.437 633.033 399.039 636.277 393.525L637.723 397.685C639.928 395.818 641.564 393.371 642.446 390.62C644.089 390.896 645.634 391.589 646.932 392.633C648.23 393.678 649.239 395.037 649.861 396.583C652.181 397.951 652.516 392.332 655.079 391.503C656.206 391.362 657.346 391.643 658.279 392.292C663.444 394.701 669.444 392.641 674.985 391.306C684.579 389.005 694.58 388.993 704.179 391.272C710.556 392.793 716.869 395.442 721.432 400.149C725.001 404.204 727.742 408.918 729.5 414.025C734.394 426.343 737.628 439.671 736.012 452.825C734.666 463.59 730.163 473.716 723.069 481.925C719.369 486.183 707.316 501.037 700.705 498.505C692.398 495.325 703.632 483.495 693.844 478.32Z" fill="#2F2E41"/>
<g clip-path="url(#clip0_3_543)">
<path d="M525.541 301.743C524.597 299.744 523.017 298.036 520.997 296.829C518.976 295.623 516.603 294.973 514.173 294.958H287.299C284.038 294.959 280.91 296.116 278.604 298.173C276.298 300.231 275.002 303.021 275 305.931V562.027C275.002 564.936 276.298 567.727 278.604 569.784C280.91 571.842 284.037 572.998 287.299 573H514.183C517.443 572.996 520.569 571.839 522.874 569.782C525.18 567.725 526.477 564.936 526.481 562.027V305.931C526.486 304.494 526.169 303.07 525.549 301.743L525.541 301.743ZM523.742 562.027C523.739 564.29 522.729 566.46 520.935 568.06C519.141 569.661 516.709 570.56 514.173 570.563H287.299C284.762 570.562 282.33 569.664 280.536 568.064C278.742 566.464 277.733 564.293 277.732 562.03V305.932C277.735 303.669 278.744 301.5 280.538 299.899C282.331 298.299 284.763 297.399 287.299 297.396H514.183C516.093 297.402 517.959 297.916 519.54 298.873C521.122 299.829 522.348 301.185 523.063 302.766C523.202 303.081 523.322 303.402 523.423 303.729C523.64 304.447 523.75 305.188 523.75 305.932L523.742 562.027Z" fill="#3F3D56"/>
<path d="M478.195 355.421H409.856C408.406 355.421 407.016 354.907 405.99 353.992C404.965 353.077 404.389 351.837 404.389 350.543C404.389 349.249 404.965 348.008 405.99 347.093C407.016 346.178 408.406 345.665 409.856 345.665H478.195C479.645 345.665 481.035 346.178 482.06 347.093C483.086 348.008 483.662 349.249 483.662 350.543C483.662 351.837 483.086 353.077 482.06 353.992C481.035 354.907 479.645 355.421 478.195 355.421Z" fill="#3F3D56"/>
<path d="M478.195 381.03H409.856C408.406 381.03 407.016 380.516 405.99 379.602C404.965 378.687 404.389 377.446 404.389 376.152C404.389 374.858 404.965 373.618 405.99 372.703C407.016 371.788 408.406 371.274 409.856 371.274H478.195C479.645 371.274 481.035 371.788 482.06 372.703C483.086 373.618 483.662 374.858 483.662 376.152C483.662 377.446 483.086 378.687 482.06 379.602C481.035 380.516 479.645 381.03 478.195 381.03Z" fill="#3F3D56"/>
<path d="M374.793 395.612H324.852C323.221 395.611 321.657 395.032 320.504 394.003C319.351 392.974 318.702 391.579 318.7 390.124V337.539C318.702 336.084 319.35 334.689 320.504 333.66C321.657 332.631 323.22 332.053 324.851 332.051H374.792C376.423 332.052 377.987 332.631 379.14 333.66C380.294 334.689 380.943 336.084 380.944 337.539V390.124C380.943 391.579 380.294 392.974 379.141 394.003C377.987 395.032 376.424 395.611 374.793 395.612Z" fill="#F59E0B"/>
<path d="M477.721 433.47H323.277C321.827 433.47 320.436 432.956 319.411 432.041C318.386 431.126 317.81 429.885 317.81 428.592C317.81 427.298 318.386 426.057 319.411 425.142C320.436 424.227 321.827 423.713 323.277 423.713H477.721C479.171 423.713 480.562 424.227 481.587 425.142C482.612 426.057 483.188 427.298 483.188 428.592C483.188 429.885 482.612 431.126 481.587 432.041C480.562 432.956 479.171 433.47 477.721 433.47Z" fill="#CCCCCC"/>
<path d="M477.721 459.079H323.277C321.827 459.079 320.436 458.565 319.411 457.65C318.386 456.735 317.81 455.494 317.81 454.201C317.81 452.907 318.386 451.666 319.411 450.751C320.436 449.836 321.827 449.322 323.277 449.322H477.721C478.439 449.322 479.15 449.449 479.813 449.694C480.476 449.939 481.079 450.298 481.587 450.751C482.095 451.204 482.497 451.742 482.772 452.334C483.047 452.926 483.188 453.56 483.188 454.201C483.188 454.841 483.047 455.476 482.772 456.067C482.497 456.659 482.095 457.197 481.587 457.65C481.079 458.103 480.476 458.462 479.813 458.707C479.15 458.953 478.439 459.079 477.721 459.079Z" fill="#CCCCCC"/>
<path d="M477.721 484.688H323.277C321.827 484.688 320.436 484.174 319.411 483.259C318.386 482.345 317.81 481.104 317.81 479.81C317.81 478.516 318.386 477.275 319.411 476.361C320.436 475.446 321.827 474.932 323.277 474.932H477.721C479.171 474.932 480.562 475.446 481.587 476.361C482.612 477.275 483.188 478.516 483.188 479.81C483.188 481.104 482.612 482.345 481.587 483.259C480.562 484.174 479.171 484.688 477.721 484.688Z" fill="#CCCCCC"/>
<path d="M477.721 510.298H323.277C321.827 510.298 320.436 509.784 319.411 508.869C318.386 507.954 317.81 506.714 317.81 505.42C317.81 504.126 318.386 502.885 319.411 501.97C320.436 501.056 321.827 500.542 323.277 500.542H477.721C479.171 500.542 480.562 501.056 481.587 501.97C482.612 502.885 483.188 504.126 483.188 505.42C483.188 506.714 482.612 507.954 481.587 508.869C480.562 509.784 479.171 510.298 477.721 510.298Z" fill="#CCCCCC"/>
<path d="M477.721 535.907H323.277C321.827 535.907 320.436 535.394 319.411 534.479C318.386 533.564 317.81 532.323 317.81 531.029C317.81 529.736 318.386 528.495 319.411 527.58C320.436 526.665 321.827 526.151 323.277 526.151H477.721C479.171 526.151 480.562 526.665 481.587 527.58C482.612 528.495 483.188 529.736 483.188 531.029C483.188 532.323 482.612 533.564 481.587 534.479C480.562 535.394 479.171 535.907 477.721 535.907Z" fill="#CCCCCC"/>
<path d="M527.238 344.155C556.378 344.155 580 323.078 580 297.078C580 271.077 556.378 250 527.238 250C498.098 250 474.475 271.077 474.475 297.078C474.475 323.078 498.098 344.155 527.238 344.155Z" fill="#F59E0B"/>
<path d="M510.883 311.668C508.73 309.756 507.022 307.482 505.86 304.978C504.697 302.473 504.102 299.788 504.11 297.077C504.118 291.606 506.557 286.36 510.894 282.491C515.231 278.623 521.11 276.447 527.242 276.441C533.373 276.449 539.251 278.625 543.586 282.494C547.92 286.362 550.359 291.607 550.366 297.077C550.359 302.548 547.921 307.793 543.586 311.661C539.251 315.53 533.373 317.707 527.242 317.713C524.203 317.721 521.192 317.191 518.384 316.153C515.576 315.116 513.026 313.591 510.883 311.668ZM508.736 297.077C508.729 299.246 509.204 301.394 510.134 303.397C511.065 305.4 512.431 307.219 514.154 308.748C515.869 310.286 517.908 311.506 520.155 312.336C522.401 313.167 524.809 313.592 527.241 313.587C532.146 313.582 536.849 311.841 540.318 308.746C543.787 305.651 545.737 301.455 545.743 297.078C545.737 292.701 543.787 288.505 540.318 285.41C536.849 282.315 532.146 280.574 527.241 280.569C522.335 280.574 517.632 282.314 514.163 285.409C510.693 288.504 508.742 292.7 508.736 297.077ZM524.925 306.371V306.351C524.925 306.08 524.985 305.811 525.101 305.561C525.218 305.31 525.389 305.083 525.604 304.891C525.819 304.699 526.074 304.547 526.355 304.444C526.637 304.34 526.938 304.287 527.242 304.288C527.855 304.288 528.443 304.506 528.876 304.893C529.309 305.28 529.552 305.804 529.552 306.351V306.371C529.552 306.642 529.493 306.91 529.377 307.161C529.261 307.411 529.091 307.639 528.877 307.831C528.662 308.023 528.408 308.175 528.127 308.279C527.847 308.383 527.546 308.437 527.242 308.437C526.938 308.437 526.637 308.384 526.355 308.281C526.074 308.177 525.819 308.025 525.604 307.834C525.389 307.642 525.218 307.414 525.101 307.164C524.985 306.913 524.925 306.644 524.925 306.373V306.371ZM524.925 300.161V287.779C524.925 287.508 524.985 287.239 525.101 286.988C525.218 286.738 525.389 286.51 525.604 286.318C525.819 286.127 526.074 285.975 526.355 285.871C526.637 285.768 526.938 285.715 527.242 285.715C527.855 285.716 528.443 285.934 528.876 286.32C529.309 286.707 529.552 287.232 529.552 287.779V300.161C529.552 300.432 529.493 300.7 529.377 300.95C529.261 301.201 529.091 301.429 528.877 301.621C528.662 301.813 528.408 301.965 528.127 302.069C527.847 302.173 527.546 302.227 527.242 302.227C526.938 302.227 526.637 302.174 526.355 302.071C526.074 301.967 525.819 301.815 525.604 301.624C525.389 301.432 525.218 301.204 525.101 300.954C524.985 300.703 524.925 300.434 524.925 300.163V300.161Z" fill="white"/>
</g>
<path d="M266.284 72.1385L269.892 80.8491L316 80.2818L315.596 64.3167C315.276 51.6794 302.465 40.7803 284.339 41.0034C266.213 41.2265 254.687 51.9095 255.006 64.5468L257.64 81L265.16 80.9074L266.284 72.1385Z" fill="#D6D6E3"/>
<defs>
<clipPath id="clip0_3_543">
<rect width="305" height="323" fill="white" transform="translate(275 250)"/>
</clipPath>
</defs>
</svg>
